<?xml version="1.0" standalone="no"?><!DOCTYPE svg PUBLIC "-//W3C//DTD SVG 1.1//EN" "http://www.w3.org/Graphics/SVG/1.1/DTD/svg11.dtd"><svg t="1567563426550" class="icon" viewBox="0 0 1024 1024" version="1.1" xmlns="http://www.w3.org/2000/svg" p-id="1124" xmlns:xlink="http://www.w3.org/1999/xlink" width="200" height="200"><defs><style type="text/css"></style></defs><path d="M0 960l1024 0 0 64-1024 0 0-64z" p-id="1125"></path><path d="M0 0l64 0 0 1024-64 0 0-1024z" p-id="1126"></path><path d="M224 896l64 0 0 64-64 0 0-64z" p-id="1127"></path><path d="M352 896l64 0 0 64-64 0 0-64z" p-id="1128"></path><path d="M480 896l64 0 0 64-64 0 0-64z" p-id="1129"></path><path d="M608 896l64 0 0 64-64 0 0-64z" p-id="1130"></path><path d="M736 896l64 0 0 64-64 0 0-64z" p-id="1131"></path><path d="M864 896l64 0 0 64-64 0 0-64z" p-id="1132"></path><path d="M64.032 768l64 0 0 64-64 0 0-64z" p-id="1133"></path><path d="M64.032 640l64 0 0 64-64 0 0-64z" p-id="1134"></path><path d="M64.032 512l64 0 0 64-64 0 0-64z" p-id="1135"></path><path d="M64.032 384l64 0 0 64-64 0 0-64z" p-id="1136"></path><path d="M64.032 256l64 0 0 64-64 0 0-64z" p-id="1137"></path><path d="M64.032 128l64 0 0 64-64 0 0-64z" p-id="1138"></path><path d="M416 832l-192 0 0-448 192 0 0 448zM288 768l64 0 0-320-64 0 0 320z" p-id="1139"></path><path d="M672 832l-192 0 0-704 192 0 0 704zM544 768l64 0 0-576-64 0 0 576z" p-id="1140"></path><path d="M928 832l-192 0 0-576 192 0 0 576zM800 768l64 0 0-448-64 0 0 448z" p-id="1141"></path></svg>