<?xml version="1.0" encoding="UTF-8" standalone="no"?>
<!DOCTYPE svg PUBLIC "-//W3C//DTD SVG 1.1//EN" "http://www.w3.org/Graphics/SVG/1.1/DTD/svg11.dtd">
<!-- 由 Microsoft Visio, SVG Export 生成 Water.svg 页-1 -->
<svg xmlns="http://www.w3.org/2000/svg" xmlns:xlink="http://www.w3.org/1999/xlink" xmlns:ev="http://www.w3.org/2001/xml-events"
		xmlns:v="http://schemas.microsoft.com/visio/2003/SVGExtensions/" width="5.35652in" height="5.35652in"
		viewBox="0 0 385.669 385.669" xml:space="preserve" color-interpolation-filters="sRGB" class="st4">
	<v:documentProperties v:langID="2052" v:metric="true" v:viewMarkup="false"/>

	<style type="text/css">
	<![CDATA[
		.st1 {fill:#4bacc6;stroke:#002060;stroke-linecap:round;stroke-linejoin:round;stroke-width:20}
		.st2 {fill:#ffffff;font-family:黑体;font-size:15em;font-weight:bold}
		.st3 {fill:#000000;stroke:#ffffff;stroke-linecap:butt;stroke-width:5.30146}
		.st4 {fill:none;fill-rule:evenodd;font-size:12px;overflow:visible;stroke-linecap:square;stroke-miterlimit:3}
	]]>
	</style>

	<g v:mID="0" v:index="1" v:groupContext="foregroundPage">
		<title>页-1</title>
		<v:pageProperties v:drawingScale="0.0393701" v:pageScale="0.0393701" v:drawingUnits="24" v:shadowOffsetX="8.50394"
				v:shadowOffsetY="-8.50394"/>
		<g id="shape22-1" v:mID="22" v:groupContext="shape" transform="translate(10,-10)">
			<title>工作表.22</title>
			<desc>供</desc>
			<v:textBlock v:margins="rect(4,4,4,4)" v:tabSpace="42.5197" v:verticalAlign="0"/>
			<v:textRect cx="182.835" cy="202.835" width="365.67" height="365.669"/>
			<ellipse cx="182.835" cy="202.835" rx="182.835" ry="182.835" class="st1"/>
			<text x="92.48" y="186" class="st2" v:langID="2052"><v:paragraph v:horizAlign="1"/><v:tabList/>供</text>		</g>
		<g id="group25-4" transform="translate(121.225,-34.5197)" v:mID="25" v:groupContext="group">
			<title>工作表.25</title>
			<g id="shape26-5" v:mID="26" v:groupContext="shape">
				<title>工作表.26</title>
				<path d="M19.58 339.53 C22.89 354.91 32.84 362.59 32.84 370.29 C32.84 377.98 29.53 385.67 19.58 385.67 C9.63 385.67
							 6.31 377.98 6.31 370.29 C6.31 362.59 16.26 354.9 19.58 339.53 ZM122.09 282.5 L94.78 282.5 L101.6 307.88
							 L122.04 307.88 L122.1 307.88 L122.1 282.5 L122.09 282.5 ZM93.75 278.68 L122.09 278.68 L122.09 273.03
							 C122.09 272.1 122.48 271.25 123.08 270.64 C123.13 270.59 123.18 270.54 123.24 270.5 C123.84 269.97 124.63
							 269.65 125.49 269.65 L139.83 269.65 C140.76 269.65 141.61 270.03 142.23 270.64 C142.83 271.25 143.22
							 272.1 143.22 273.03 L143.22 318.28 C143.22 319.21 142.83 320.06 142.23 320.67 C142.18 320.72 142.13
							 320.77 142.07 320.81 C141.47 321.34 140.68 321.66 139.82 321.66 L125.48 321.66 C124.55 321.66 123.7
							 321.28 123.08 320.67 C122.48 320.06 122.09 319.21 122.09 318.28 L122.09 311.69 L122.03 311.69 L101.93
							 311.69 C100.17 319.61 95.12 325.15 88.67 328.39 C84.05 330.71 78.72 331.85 73.37 331.84 C68.04 331.84
							 62.68 330.68 57.99 328.44 C51.14 325.15 45.72 319.53 43.84 311.68 L42.79 311.68 C39.64 311.8 37.31 312.55
							 35.71 313.86 C34.2 315.1 33.32 316.94 33.01 319.33 L33.01 328.96 C33.01 330.01 32.16 330.87 31.1 330.87
							 L1.91 330.87 C0.86 330.88 0 330.03 0 328.97 L0 308.12 C0 308.01 0.01 307.91 0.02 307.79 C1.43 299.61
							 4.52 292.92 9.5 287.97 C14.47 283.04 21.26 279.89 30.12 278.71 C30.26 278.69 30.4 278.66 30.54 278.66
							 L52.79 278.66 L56.65 265.53 C56.9 264.69 57.65 264.16 58.47 264.16 L64.85 264.16 L64.85 249.76 L49.27
							 249.76 C46.98 249.76 44.92 248.83 43.42 247.33 C41.92 245.82 40.99 243.75 40.99 241.48 C40.99 239.2
							 41.92 237.14 43.42 235.64 C44.92 234.14 47 233.21 49.27 233.21 L95.5 233.21 C97.79 233.21 99.85 234.14
							 101.35 235.64 C102.85 237.14 103.78 239.21 103.78 241.48 C103.78 243.77 102.85 245.82 101.35 247.33
							 C99.85 248.83 97.77 249.76 95.5 249.76 L80.79 249.76 L80.79 264.16 L88.41 264.16 C89.33 264.16 90.09
							 264.81 90.28 265.68 L93.75 278.68 ZM76.97 264.16 L76.97 249.76 L68.67 249.76 L68.67 264.16 L76.97 264.16
							 ZM44.24 307.88 L51.68 282.5 L30.62 282.5 C22.64 283.56 16.56 286.34 12.2 290.67 C7.83 295 5.1 300.93
							 3.82 308.27 L3.82 327.06 L29.2 327.06 L29.2 319.23 C29.2 319.12 29.22 319.02 29.23 318.91 C29.65 315.51
							 30.98 312.83 33.29 310.93 C35.53 309.07 38.66 308.03 42.73 307.88 L42.79 307.88 L42.79 307.87 L44.24
							 307.87 L44.24 307.88 ZM47.47 310.42 C48.96 317.26 53.65 322.16 59.62 325.03 C63.81 327.02 68.59 328.04
							 73.37 328.05 C78.14 328.05 82.87 327.05 86.96 325 C92.58 322.17 96.93 317.35 98.32 310.42 L86.94 268
							 L59.91 268 L56.05 281.13 L47.53 310.2 C47.52 310.26 47.49 310.35 47.47 310.42 ZM95.52 237.03 L49.27
							 237.03 C48.04 237.03 46.93 237.52 46.11 238.34 C45.31 239.15 44.8 240.27 44.8 241.5 C44.8 242.72 45.31
							 243.83 46.11 244.65 C46.92 245.45 48.04 245.96 49.27 245.96 L95.5 245.96 C96.73 245.96 97.84 245.45
							 98.66 244.65 C99.46 243.84 99.97 242.72 99.97 241.5 C99.97 240.27 99.46 239.16 98.66 238.34 C97.85 237.52
							 96.73 237.03 95.52 237.03 ZM139.4 273.45 L125.91 273.45 L125.91 317.86 L139.4 317.86 L139.4 273.45 Z"
						class="st3"/>
			</g>
		</g>
	</g>
</svg>
