<?xml version="1.0" encoding="utf-8"?>
<!-- Generator: Adobe Illustrator 21.0.0, SVG Export Plug-In . SVG Version: 6.00 Build 0)  -->
<svg version="1.1" id="Layer_1" xmlns="http://www.w3.org/2000/svg" xmlns:xlink="http://www.w3.org/1999/xlink" x="0px" y="0px"
	 viewBox="0 0 536.8 533.9" style="enable-background:new 0 0 536.8 533.9;" xml:space="preserve">
<style type="text/css">
	.st0{fill:#23416B;}
</style>
<g transform="translate(0.000000,1248.000000) scale(0.100000,-0.100000)">
	<path class="st0" d="M2577,12162.5c-117.8-6.2-250.6-19.2-292.6-28.5c-5.4-1.2-27.3-4.6-48.5-7.7c-21.6-3.5-48.5-8.5-60.4-11.5
		c-11.5-3.1-25.4-6.2-30.4-7.3c-26.6-5-79.7-17.3-108.9-25.8c-14.6-4.2-32-8.9-38.5-10.8c-26.2-7.3-70.1-21.2-80.8-25.8
		c-6.2-2.3-17.7-5.8-25-7.3c-7.3-1.5-15-4.2-17.3-5.4c-1.9-1.5-18.5-7.7-36.6-13.9c-18.1-5.8-39.7-13.9-47.7-17.7
		c-8.5-4.2-16.6-7.3-18.5-7.3s-11.5-3.8-21.6-8.1c-43.9-19.6-50.8-22.7-53.1-22.7c-6.9,0-205.6-101.2-232.5-118.6
		c-5.4-3.5-15.8-9.6-23.1-13.5c-7.3-4.2-23.5-14.2-36.2-22.3c-12.3-8.5-23.9-15-25.8-15s-3.5-1.5-3.5-3.8c0-1.9-2.7-3.8-5.8-3.8
		s-5.8-1.5-5.8-3.8c0-1.9-1.9-3.8-4.2-3.8c-5.4,0-118.6-78.5-140.9-97.8c-2.7-2.3-13.1-10.8-23.1-18.5
		c-117.8-92-228.7-196.3-320.3-301.8c-35.8-40.8-97-115.5-102-124.3c-1.9-3.5-6.2-8.5-9.2-11.5c-2.7-3.1-8.1-10-11.5-15.4
		s-11.5-16.9-18.5-25.4c-20.4-26.2-63.1-89.7-63.1-93.9c0-2.3-1.5-4.2-3.8-4.2c-1.9,0-3.8-1.5-3.8-3.8c0-1.9-8.5-16.2-18.9-31.6
		c-10.4-15.4-23.1-35.8-28.5-45.4c-57.7-100.9-99.7-182.5-126.3-244.8c-8.9-20.8-20-47.4-25-58.5c-5-11.2-9.2-22.3-9.2-25
		c0-2.7-1.5-6.5-3.5-8.5c-1.9-2.3-6.9-15-11.5-28.9c-4.6-13.9-10-28.5-11.9-32.7c-3.5-8.1-38.9-112.8-40-119.3
		c-1.5-5.8-10-35-18.5-63.5c-4.2-13.9-10-35.4-13.1-48.1c-15.4-68.1-24.3-109.3-26.2-122.8c-1.5-8.1-3.1-15.8-3.8-17.3
		c-0.8-1.2-3.5-16.2-6.2-33.1c-2.3-16.9-5-34.3-5.8-38.5c-32-187.5-36.6-441.5-11.5-631.3c3.1-23.1,6.5-52,7.7-63.5
		c2.3-20.4,5.8-39.7,19.6-111.6c3.5-18.1,7.7-41.2,9.6-52c3.5-18.9,18.1-79.3,33.5-136.7c12.3-45.8,45.8-146.7,70.1-209.8
		c236.8-619,738-1120.2,1357-1357c128.2-49.3,249.8-84.3,373.4-108.2c44.7-8.9,88.5-17.3,98.2-19.2c63.9-13.1,206.3-25.8,319.5-28.9
		c364.6-10.4,744.1,72.4,1079.8,234.8c692.5,335.3,1180.3,989,1302.7,1746.2c69.7,428.5,21.6,854.2-142.1,1263.4
		c-29.6,73.9-104.7,226.7-146.3,297.6c-209.8,356.9-499.7,646.7-856.5,856.5c-74.7,43.5-225.2,117.4-306,149.4
		c-86.2,34.3-195.2,70.8-252.1,85.1c-135.9,33.5-170.5,41.6-196.3,44.7c-10.4,1.5-31.6,5-46.6,8.1c-26.6,5.4-85.8,13.1-155.5,20.4
		c-28.1,3.1-101.2,7.7-209.8,13.5C2649,12165.2,2609.7,12164.4,2577,12162.5z M2908,11870.3c0-2.3,29.3-3.8,80.1-4.2
		c43.9,0,77.4-1.2,75.1-2.3c-13.9-5.4-1.2-8.9,31.6-8.9c21.9,0,36.6-1.5,36.6-3.8c0-2.3,12.3-3.8,28.9-3.8c16.6,0,28.9-1.5,28.9-3.8
		c0-2.3,10.8-3.8,25-3.8c14.2,0,25-1.5,25-3.8c0-1.9,9.6-3.8,21.2-3.8s21.2-1.5,21.2-3.8c0-1.9,9.6-3.8,21.2-3.8s21.2-1.5,21.2-3.8
		c0-1.9,7.7-3.8,17.3-3.8c12.7,0,17.3-1.5,17.3-5.8s4.2-5.8,15.4-5.8c8.5,0,15.4-1.5,15.4-3.8c0-1.9,7.7-3.8,17.3-3.8
		s17.3-1.5,17.3-3.8c0-1.9,5.4-3.8,11.5-3.8c6.5,0,11.5-1.5,11.5-3.8c0-1.9,7.7-3.8,17.3-3.8s17.3-1.5,17.3-3.8
		c0-1.9,6.2-3.8,13.5-3.8s13.5-1.5,13.5-3.8c0-1.9,5.4-3.8,11.5-3.8c7.7,0,11.5-1.9,11.5-5.8s4.2-5.8,13.5-5.8
		c7.3,0,13.5-1.5,13.5-3.8c0-1.9,3.5-3.8,7.7-3.8c4.2,0,7.7-1.5,7.7-3.8c0-1.9,5.4-3.8,11.5-3.8c6.5,0,11.5-1.5,11.5-3.8
		c0-1.9,6.2-3.8,13.5-3.8c7.3,0,13.5-1.5,13.5-3.8c0-1.9,3.5-3.8,7.7-3.8c4.2,0,7.7-1.5,7.7-3.8c0-1.9,3.5-3.8,7.7-3.8
		c4.2,0,7.7-2.7,7.7-5.8c0-3.8,4.2-5.8,13.5-5.8c7.3,0,13.5-1.5,13.5-3.8c0-1.9,3.5-3.8,7.7-3.8c4.2,0,7.7-1.5,7.7-3.8
		c0-1.9,4.2-3.8,9.6-3.8c5.4,0,9.6-1.5,9.6-3.8c0-1.9,3.5-3.8,7.7-3.8c4.2,0,7.7-1.5,7.7-3.8c0-1.9,5.4-3.8,11.5-3.8
		c6.5,0,11.5-1.5,11.5-3.8c0-1.9,4.2-3.8,9.6-3.8c5.4,0,9.6-1.5,9.6-3.8c0-1.9,3.5-3.8,7.7-3.8c4.2,0,7.7-2.7,7.7-5.8
		c0-3.1,3.5-5.8,7.7-5.8c4.2,0,7.7-1.5,7.7-3.8c0-1.9,2.7-3.8,5.8-3.8c3.1,0,5.8-1.5,5.8-3.8c0-1.9,3.5-3.8,7.7-3.8
		c4.2,0,7.7-1.5,7.7-3.8c0-1.9,3.5-3.8,7.7-3.8c4.2,0,7.7-1.5,7.7-3.8c0-1.9,4.2-3.8,9.6-3.8c5.4,0,9.6-1.5,9.6-3.8
		c0-1.9,3.5-3.8,7.7-3.8c4.2,0,7.7-1.9,7.7-4.2c0-6.2,10-15,16.9-15c3.5,0,6.2-1.5,6.2-3.8c0-1.9,3.8-3.8,8.9-3.8
		c4.6,0,11.2-3.5,14.2-7.7c3.1-4.2,8.5-7.7,12.3-7.7s6.9-1.5,6.9-3.8c0-1.9,3.5-3.8,7.7-3.8c4.2,0,7.7-2.7,7.7-5.8
		c0-3.1,2.7-5.8,5.8-5.8c3.1,0,5.8-1.5,5.8-3.8c0-1.9,3.1-3.8,6.9-3.8s9.2-3.5,12.3-7.7c3.1-4.2,8.5-7.7,12.3-7.7s6.9-1.5,6.9-3.8
		c0-1.9,2.7-3.8,5.8-3.8c3.1,0,5.8-1.5,5.8-3.8c0-1.9,3.5-3.8,7.7-3.8c4.2,0,7.7-1.9,7.7-3.8c0-6.9,18.5-23.1,25.8-23.1
		c3.8,0,9.6-3.5,12.7-7.7c3.1-4.2,7.7-7.7,10.8-7.7c5.4,0,16.2-8.9,16.2-13.5c0-3.8,10.8-13.5,15-13.5c2.3,0,4.2-1.5,4.2-3.8
		c0-1.9,2.7-3.8,5.8-3.8c6.5,0,32.7-24.6,32.7-30.8c0-1.9,3.5-3.8,8.1-3.8c4.2,0,16.2-8.5,26.6-19.2c10.4-10.4,20.4-19.2,22.7-19.2
		c2.3,0,4.2-1.9,4.2-4.2c0-5.4,10-15,15.4-15c2.3,0,11.2-6.9,19.2-15.4c8.1-8.5,15.8-15.4,17.3-15.4c3.1,0,13.5-10.4,13.5-13.5
		c0-2.7,33.9-36.6,36.6-36.6c3.5,0,13.5-10.4,13.5-13.5c0-1.5,5.4-7.7,11.5-13.5c6.5-5.8,11.5-13.9,11.5-18.1c0-5.8,0.8-6.2,3.8-1.2
		c3.1,4.6,3.8,4.2,3.8-2.7c0-5.4,2.3-8.9,5.8-8.9c3.1,0,5.8-1.9,5.8-3.8c0-5.4,40.8-46.2,46.2-46.2c1.9,0,3.8-3.5,3.8-8.1
		c0-4.2,6.9-14.6,15.4-22.7s15.4-17.7,15.4-21.2c0-6.2,8.5-17.3,13.5-17.3c4.6,0,13.5-10.8,13.5-16.2c0-3.1,3.5-7.7,7.7-10.8
		c4.2-3.1,7.7-7.7,7.7-10.4c0-2.7,1.9-5,3.8-5c2.3,0,3.8-2.7,3.8-6.2c0-5.8,8.9-16.9,13.5-16.9s13.5-11.2,13.5-16.9
		c0-3.5,1.9-6.2,3.8-6.2c2.3,0,3.8-2.7,3.8-5.8c0-3.1,1.9-5.8,3.8-5.8c2.3,0,3.8-3.1,3.8-6.9s3.5-9.2,7.7-12.3
		c4.2-3.1,7.7-8.5,7.7-12.3s2.7-6.9,5.8-6.9s5.8-2.7,5.8-5.8c0-3.1,1.9-5.8,3.8-5.8c2.3,0,3.8-3.5,3.8-7.7s1.9-7.7,3.8-7.7
		c2.3,0,3.8-3.1,3.8-6.9s3.5-9.2,7.7-12.3c4.2-3.1,7.7-9.6,7.7-14.2c0-5,1.9-8.9,3.8-8.9c2.3,0,3.8-2.7,3.8-6.2
		c0-6.9,8.9-16.9,15-16.9c2.3,0,4.2-4.2,4.2-9.6s1.9-9.6,3.8-9.6c2.3,0,3.8-3.5,3.8-7.7s1.9-7.7,3.8-7.7c2.3,0,3.8-3.5,3.8-7.7
		s1.9-7.7,3.8-7.7c2.3,0,3.8-4.2,3.8-9.6s1.9-9.6,3.8-9.6c2.3,0,3.8-2.7,3.8-6.2c0-6.9,8.9-16.9,15-16.9c2.3,0,4.2-6.2,4.2-13.5
		s1.9-13.5,3.8-13.5c2.3,0,3.8-3.5,3.8-7.7s1.9-7.7,3.8-7.7c2.3,0,3.8-3.5,3.8-7.7s1.9-7.7,3.8-7.7c2.3,0,3.8-4.2,3.8-9.6
		s1.9-9.6,3.8-9.6c2.3,0,3.8-3.5,3.8-7.7s1.9-7.7,3.8-7.7c2.3,0,3.8-3.5,3.8-7.7s2.7-7.7,5.8-7.7c3.8,0,5.8-4.2,5.8-13.5
		c0-7.3,1.9-13.5,3.8-13.5c2.3,0,3.8-3.5,3.8-7.7s1.9-7.7,3.8-7.7c2.3,0,3.8-5,3.8-11.5c0-6.2,1.9-11.5,3.8-11.5
		c2.3,0,3.8-4.2,3.8-9.6s1.9-9.6,3.8-9.6c2.3,0,3.8-5,3.8-11.5c0-6.2,1.9-11.5,3.8-11.5c2.3,0,3.8-6.2,3.8-13.5
		c0-9.2,1.9-13.5,5.8-13.5c3.1,0,5.8-3.5,5.8-7.7s1.9-7.7,3.8-7.7c2.3,0,3.8-6.2,3.8-13.5s1.9-13.5,3.8-13.5c2.3,0,3.8-6.9,3.8-15.4
		c0-8.5,1.9-15.4,3.8-15.4c2.3,0,3.8-6.2,3.8-13.5s1.9-13.5,3.8-13.5c2.3,0,3.8-5,3.8-11.5c0-6.2,1.9-11.5,3.8-11.5
		c2.3,0,3.8-7.7,3.8-17.3c0-12.7,1.5-17.3,5.8-17.3s5.8-4.2,5.8-15.4c0-8.5,1.9-15.4,3.8-15.4c2.3,0,3.8-7.7,3.8-17.3
		s1.9-17.3,3.8-17.3c2.3,0,3.8-9.6,3.8-21.2s1.9-21.2,3.8-21.2c2.3,0,3.8-9.2,3.8-20.8c0-13.1,1.9-21.9,5-23.1
		c3.8-1.9,3.8-2.7,0-4.6c-5.8-2.7-6.9-24.6-1.2-24.6c2.3,0,3.8-2.7,3.8-5.8s-1.5-5.8-3.8-5.8c-1.9,0-3.8-3.5-3.8-7.7
		s1.9-7.7,3.8-7.7c2.3,0,3.8-7.7,3.8-17.3s1.9-17.3,3.8-17.3c2.3,0,3.8-14.6,3.8-36.6c0-30,1.2-36.6,5.8-36.6c5,0,5.8-10.4,5.8-71.2
		c0-45,1.5-71.2,3.8-71.2s3.8-24.3,3.8-65.4s-1.5-65.4-3.8-65.4s-3.8-26.2-3.8-71.2c0-60.8-0.8-71.2-5.8-71.2
		c-4.6,0-5.8-6.9-5.8-38.5c0-23.1-1.5-38.5-3.8-38.5s-3.8-12.3-3.8-28.9s-1.5-28.9-3.8-28.9s-3.8-12.3-3.8-29.3
		c0-18.1-1.5-28.1-3.8-26.6s-3.8-6.5-3.8-20.8c0-13.1-1.5-23.5-3.8-23.5c-1.9,0-3.8-8.5-3.8-19.2c0-10.4-1.5-19.2-3.8-19.2
		c-1.9,0-3.8-7.7-3.8-17.3c0-12.7-1.5-17.3-5.8-17.3s-5.8-4.6-5.8-17.3c0-9.6-1.5-17.3-3.8-17.3c-1.9,0-3.8-6.9-3.8-15.4
		s-1.5-15.4-3.8-15.4c-1.9,0-3.8-7.7-3.8-17.3s-1.5-17.3-3.8-17.3c-1.9,0-3.8-6.2-3.8-13.5s-1.5-13.5-3.8-13.5
		c-1.9,0-3.8-6.9-3.8-15.4s-1.5-15.4-3.8-15.4c-1.9,0-3.8-6.2-3.8-13.5c0-9.2-1.9-13.5-5.8-13.5s-5.8-3.8-5.8-11.5
		c0-6.2-1.5-11.5-3.8-11.5c-1.9,0-3.8-6.2-3.8-13.5s-1.5-13.5-3.8-13.5c-1.9,0-3.8-3.5-3.8-7.7s-1.5-7.7-3.8-7.7
		c-1.9,0-3.8-5-3.8-11.5c0-6.2-1.5-11.5-3.8-11.5c-1.9,0-3.8-6.2-3.8-13.5s-1.5-13.5-3.8-13.5c-1.9,0-3.8-3.5-3.8-7.7
		s-2.7-7.7-5.8-7.7c-3.8,0-5.8-4.2-5.8-13.5c0-7.3-1.5-13.5-3.8-13.5c-1.9,0-3.8-3.5-3.8-7.7s-1.5-7.7-3.8-7.7
		c-1.9,0-3.8-6.2-3.8-13.5s-1.5-13.5-3.8-13.5c-1.9,0-3.8-3.5-3.8-7.7s-1.5-7.7-3.8-7.7c-1.9,0-3.8-3.5-3.8-7.7s-1.5-7.7-3.8-7.7
		c-1.9,0-3.8-4.2-3.8-9.6c0-6.2-2.3-9.6-5.8-9.6c-3.1,0-5.8-3.5-5.8-7.7s-1.5-7.7-3.8-7.7c-1.9,0-3.8-3.5-3.8-7.7s-1.5-7.7-3.8-7.7
		c-1.9,0-3.8-3.1-3.8-6.5c0-10.8-9.2-33.5-16.2-40c-3.8-3.5-6.9-10-6.9-14.6c0-4.6-2.3-8.1-5.8-8.1c-3.1,0-5.8-3.5-5.8-7.7
		s-1.5-7.7-3.8-7.7c-1.9,0-3.8-3.5-3.8-7.7s-1.5-7.7-3.8-7.7c-1.9,0-3.8-4.2-3.8-9.6s-1.5-9.6-3.8-9.6c-1.9,0-3.8-3.1-3.8-6.9
		s-3.5-9.2-7.7-12.3c-4.2-3.1-7.7-8.5-7.7-12.3s-1.5-6.9-3.8-6.9c-1.9,0-3.8-4.2-3.8-9.6c0-5.8-2.3-9.6-5.4-9.6
		c-3.1,0-7.7-5.4-10.8-11.5c-2.7-6.5-6.2-11.5-7.7-11.5c-1.9,0-3.1-3.5-3.1-7.7s-1.5-7.7-3.8-7.7c-1.9,0-3.8-2.7-3.8-5.8
		c0-3.1-1.5-5.8-3.8-5.8c-1.9,0-3.8-2.7-3.8-6.2c0-6.9-8.9-16.9-15-16.9c-2.3,0-4.2-3.5-4.2-7.7s-1.5-7.7-3.8-7.7
		c-1.9,0-3.8-2.7-3.8-5.8c0-3.1-1.5-5.8-3.8-5.8c-1.9,0-3.8-3.1-3.8-6.9s-3.5-9.2-7.7-12.3c-4.2-3.1-7.7-8.5-7.7-12.3
		s-1.5-6.9-3.8-6.9c-1.9,0-3.8-2.7-3.8-5.8c0-3.1-2.7-5.8-5.8-5.8s-5.8-2.7-5.8-6.2s-5-11.2-11.5-16.9c-6.2-5.8-11.5-13.5-11.5-16.9
		c0-7.3-16.6-25.4-23.1-25.4c-1.9,0-3.8-3.1-3.8-6.9s-3.5-9.2-7.7-12.3c-4.2-3.1-7.7-7.3-7.7-9.6s-3.5-6.5-7.7-9.6
		c-4.2-3.1-7.7-7.7-7.7-10.8c0-5.4-8.9-16.2-13.5-16.2c-3.8,0-21.2-18.5-21.2-23.1c0-1.9-1.5-3.8-3.8-3.8c-1.9,0-3.8-2.7-3.8-5.8
		c0-5.8-16.6-25-21.2-25c-3.1,0-13.5-10.4-13.5-13.5c0-2.7-33.9-36.6-36.6-36.6c-5,0-13.5-11.2-13.5-17.3c0-3.5-8.5-14.6-19.2-25
		c-10.4-10.4-19.2-20.4-19.2-22.7c0-2.3-2.3-4.2-5-4.2s-7.3-3.5-10.4-7.7s-8.1-7.7-10.8-7.7c-3.1,0-10.4-5-16.2-11.5
		c-5.8-6.2-12.7-11.5-15-11.5c-2.3,0-4.2-1.9-4.2-3.8c0-7.3-42-46.2-50-46.2c-4.2,0-7.7-1.9-7.7-3.8c0-5.4-33.1-38.5-38.5-38.5
		c-1.9,0-3.8-1.5-3.8-3.8c0-1.9-2.7-3.8-6.2-3.8c-5.8,0-16.9-8.9-16.9-13.5c0-5-11.2-13.5-17.3-13.5c-3.5,0-13.1-6.9-21.2-15.4
		c-8.1-8.5-17.7-15.4-20.8-15.4c-3.5,0-6.2-2.7-6.2-5.8c0-3.1-2.7-5.8-5.8-5.8c-3.1,0-5.8-1.5-5.8-3.8c0-1.9-2.7-3.8-6.2-3.8
		c-3.5,0-11.2-5-16.9-11.5c-5.8-6.2-13.5-11.5-16.9-11.5s-6.2-1.5-6.2-3.8c0-1.9-2.7-3.8-5.8-3.8c-3.1,0-5.8-2.7-5.8-5.8
		c0-3.1-3.1-5.8-6.9-5.8s-9.2-3.5-12.3-7.7c-3.1-4.2-8.5-7.7-12.3-7.7s-6.9-1.5-6.9-3.8c0-1.9-2.7-3.8-5.8-3.8
		c-3.1,0-5.8-1.5-5.8-3.8c0-1.9-2.7-3.8-6.2-3.8c-6.9,0-16.9-8.9-16.9-15c0-2.3-3.5-4.2-7.7-4.2c-4.2,0-7.7-1.5-7.7-3.8
		c0-1.9-3.8-3.8-8.9-3.8c-4.6,0-11.2-3.5-14.2-7.7c-3.1-4.2-8.5-7.7-12.3-7.7s-6.9-1.5-6.9-3.8c0-1.9-4.2-3.8-9.6-3.8
		c-5.4,0-9.6-1.5-9.6-3.8c0-1.9-3.5-3.8-7.7-3.8c-4.2,0-7.7-1.9-7.7-4.2c0-6.2-10-15-16.9-15c-3.5,0-6.2-1.5-6.2-3.8
		c0-1.9-4.2-3.8-9.6-3.8c-5.4,0-9.6-1.5-9.6-3.8c0-1.9-3.5-3.8-7.7-3.8c-4.2,0-7.7-1.5-7.7-3.8c0-1.9-3.5-3.8-7.7-3.8
		c-4.2,0-7.7-1.5-7.7-3.8c0-1.9-4.2-3.8-9.6-3.8c-6.2,0-9.6-2.3-9.6-5.8c0-3.1-3.5-5.8-7.7-5.8c-4.2,0-7.7-1.5-7.7-3.8
		c0-1.9-3.5-3.8-7.7-3.8c-4.2,0-7.7-1.5-7.7-3.8c0-1.9-4.2-3.8-9.6-3.8c-5.4,0-9.6-1.5-9.6-3.8c0-1.9-3.5-3.8-7.7-3.8
		c-4.2,0-7.7-1.5-7.7-3.8c0-1.9-3.5-3.8-7.7-3.8c-4.2,0-7.7-1.5-7.7-3.8c0-1.9-4.2-3.8-9.6-3.8c-6.2,0-9.6-2.3-9.6-5.8
		c0-3.8-3.8-5.8-11.5-5.8c-6.2,0-11.5-1.5-11.5-3.8c0-1.9-3.5-3.8-7.7-3.8c-4.2,0-7.7-1.5-7.7-3.8c0-1.9-6.2-3.8-13.5-3.8
		s-13.5-1.5-13.5-3.8c0-1.9-3.5-3.8-7.7-3.8s-7.7-1.5-7.7-3.8c0-1.9-6.2-3.8-13.5-3.8s-13.5-1.5-13.5-3.8c0-1.9-3.5-3.8-7.7-3.8
		s-7.7-1.5-7.7-3.8c0-1.9-6.2-3.8-13.5-3.8c-9.2,0-13.5-1.9-13.5-5.8s-3.8-5.8-11.5-5.8c-6.2,0-11.5-1.5-11.5-3.8
		c0-1.9-6.2-3.8-13.5-3.8s-13.5-1.5-13.5-3.8c0-1.9-5-3.8-11.5-3.8c-6.2,0-11.5-1.5-11.5-3.8c0-1.9-6.2-3.8-13.5-3.8
		s-13.5-1.5-13.5-3.8c0-1.9-5-3.8-11.5-3.8c-6.2,0-11.5-1.5-11.5-3.8c0-1.9-7.7-3.8-17.3-3.8c-12.7,0-17.3-1.5-17.3-5.8
		c0-4.2-4.2-5.8-15.4-5.8c-8.5,0-15.4-1.5-15.4-3.8c0-1.9-7.7-3.8-17.3-3.8s-17.3-1.5-17.3-3.8c0-1.9-7.7-3.8-17.3-3.8
		s-17.3-1.5-17.3-3.8c0-1.9-6.9-3.8-15.4-3.8s-15.4-1.5-15.4-3.8c0-1.9-9.6-3.8-21.2-3.8s-21.2-1.5-21.2-3.8c0-2.3-10.8-3.8-25-3.8
		c-19.6,0-25-1.2-25-5.8c0-4.6-5.4-5.8-25-5.8c-14.2,0-25-1.5-25-3.8c0-2.3-13.5-3.8-32.7-3.8s-32.7-1.5-32.7-3.8
		c0-2.3-16.6-3.8-42.3-3.8s-42.3-1.5-42.3-3.8c0-2.7-63.5-3.8-182.9-3.8s-182.9,1.2-182.9,3.8c0,2.3-16.6,3.8-42.3,3.8
		c-25.8,0-42.3,1.5-42.3,3.8c0,2.3-12.3,3.8-28.9,3.8c-16.6,0-28.9,1.5-28.9,3.8c0,2.3-12.3,3.8-28.9,3.8c-23.1,0-28.9,1.2-28.9,5.8
		c0,4.6-5,5.8-21.2,5.8c-11.5,0-21.2,1.9-21.2,3.8c0,2.3-9.6,3.8-21.2,3.8s-21.2,1.9-21.2,3.8c0,2.3-8.5,3.8-19.2,3.8
		c-10.4,0-19.2,1.9-19.2,3.8c0,2.3-7.7,3.8-17.3,3.8s-17.3,1.9-17.3,3.8c0,2.3-7.7,3.8-17.3,3.8s-17.3,1.9-17.3,3.8
		c0,2.3-5,3.8-11.5,3.8c-7.7,0-11.5,1.9-11.5,5.8c0,4.2-4.6,5.8-17.3,5.8c-9.6,0-17.3,1.9-17.3,3.8c0,2.3-5,3.8-11.5,3.8
		c-6.2,0-11.5,1.9-11.5,3.8c0,2.3-6.2,3.8-13.5,3.8s-13.5,1.9-13.5,3.8c0,2.3-6.9,3.8-15.4,3.8s-15.4,1.9-15.4,3.8
		c0,2.3-4.2,3.8-9.6,3.8c-5.4,0-9.6,1.9-9.6,3.8c0,2.3-5,3.8-11.5,3.8c-7.7,0-11.5,1.9-11.5,5.8s-4.2,5.8-13.5,5.8
		c-7.3,0-13.5,1.9-13.5,3.8c0,2.3-5,3.8-11.5,3.8c-6.2,0-11.5,1.9-11.5,3.8c0,2.3-4.2,3.8-9.6,3.8c-5.4,0-9.6,1.9-9.6,3.8
		c0,2.3-5,3.8-11.5,3.8c-6.2,0-11.5,1.9-11.5,3.8c0,2.3-3.5,3.8-7.7,3.8c-4.2,0-7.7,1.9-7.7,3.8c0,2.3-6.2,3.8-13.5,3.8
		c-7.3,0-13.5,1.9-13.5,3.8c0,2.3-3.5,3.8-7.7,3.8c-4.2,0-7.7,2.7-7.7,5.8c0,3.5-3.5,5.8-9.6,5.8c-5.4,0-9.6,1.9-9.6,3.8
		c0,2.3-3.5,3.8-7.7,3.8c-4.2,0-7.7,1.9-7.7,3.8c0,2.3-3.5,3.8-7.7,3.8c-4.2,0-7.7,1.9-7.7,3.8c0,2.3-6.2,3.8-13.5,3.8
		c-7.3,0-13.5,1.9-13.5,3.8c0,2.3-3.5,3.8-7.7,3.8c-4.2,0-7.7,1.9-7.7,3.8c0,2.3-3.5,3.8-7.7,3.8c-4.2,0-7.7,2.7-7.7,5.8
		c0,3.5-3.5,5.8-8.9,5.8c-4.6,0-11.2,3.5-14.2,7.7c-3.1,4.2-8.5,7.7-12.3,7.7s-6.9,1.9-6.9,3.8c0,2.3-3.5,3.8-7.7,3.8
		c-4.2,0-7.7,1.9-7.7,3.8c0,2.3-4.2,3.8-9.6,3.8c-5.4,0-9.6,1.9-9.6,3.8c0,2.3-3.5,3.8-7.7,3.8c-4.2,0-7.7,1.9-7.7,4.2
		c0,6.5-10.4,15-18.9,15c-4.6,0-8.1,1.9-8.1,3.8c0,2.3-3.5,3.8-7.7,3.8c-4.2,0-7.7,1.9-7.7,3.8c0,2.3-3.1,3.8-6.9,3.8
		s-9.2,3.5-12.3,7.7c-3.1,4.2-9.6,7.7-14.2,7.7c-5,0-8.9,1.9-8.9,4.2c0,6.2-10,15-16.9,15c-3.5,0-6.2,1.9-6.2,3.8
		c0,2.3-3.8,3.8-8.9,3.8c-4.6,0-11.2,3.5-14.2,7.7c-3.1,4.2-7.7,7.7-10.8,7.7c-6.2,0-16.2,9.2-16.2,15c0,2.3-3.5,4.2-8.1,4.2
		s-13.1,5.4-18.9,11.5c-5.8,6.5-13.1,11.5-16.2,11.5c-2.7,0-7.7,3.5-10.8,7.7c-3.1,4.2-9.6,7.7-14.2,7.7c-5,0-8.9,1.9-8.9,3.8
		c0,5.8-18.1,23.1-23.9,23.1c-3.1,0-7.7,3.5-10.8,7.7c-3.1,4.2-6.9,7.7-8.9,7.7c-4.6,0-14.2,10.4-14.2,15c0,2.3-2.7,4.2-6.2,4.2
		c-3.5,0-11.2,5.4-16.9,11.5c-5.8,6.5-12.7,11.5-15,11.5c-2.3,0-4.2,1.9-4.2,3.8c0,2.3-2.7,3.8-5.8,3.8c-5.8,0-25,16.6-25,21.2
		c0,3.5-10.4,13.5-13.5,13.5c-1.5,0-7.7,5.4-13.5,11.5c-5.8,6.5-12.7,11.5-15.4,11.5c-5.4,0-15.4,9.6-15.4,15c0,2.3-1.9,4.2-3.8,4.2
		c-5.4,0-46.2,40.8-46.2,46.2c0,1.9-1.9,3.8-3.8,3.8c-4.2,0-46.2,40.4-46.2,44.3c0,3.1-10.4,13.5-13.5,13.5
		c-5,0-28.9,26.9-28.9,32.7s-16.2,25-21.2,25c-5,0-28.9,26.9-28.9,32.7s-16.2,25-21.2,25c-5,0-21.2,19.2-21.2,25.4
		c0,3.5-5,11.2-11.5,16.9c-6.2,5.8-11.5,13.5-11.5,16.9s-1.9,6.2-4.2,6.2c-5.4,0-15,9.6-15,15c0,2.3-1.5,4.2-3.8,4.2
		c-1.9,0-3.8,2.7-3.8,6.2c0,3.5-5,11.2-11.5,16.9c-6.2,5.8-11.5,14.2-11.5,18.9s-1.9,8.1-4.2,8.1c-5.8,0-15,10-15,16.2
		c0,3.1-3.5,7.7-7.7,10.8c-4.2,3.1-7.7,9.2-7.7,13.5s-3.5,10.4-7.7,13.5c-4.2,3.1-7.7,8.5-7.7,12.3s-1.9,6.9-4.2,6.9
		c-6.5,0-15,10.4-15,18.1c0,3.8-3.5,9.6-7.7,12.7c-4.2,3.1-7.7,8.5-7.7,12.3s-1.5,6.9-3.8,6.9c-1.9,0-3.8,3.5-3.8,7.7
		s-1.5,7.7-3.8,7.7c-1.9,0-3.8,2.7-3.8,5.8c0,3.1-1.5,5.8-3.8,5.8c-1.9,0-3.8,3.5-3.8,7.7s-2.7,7.7-5.8,7.7s-5.8,3.1-5.8,6.9
		s-3.5,9.2-7.7,12.3c-4.2,3.1-7.7,9.6-7.7,14.2c0,5-1.5,8.9-3.8,8.9c-1.9,0-3.8,3.5-3.8,7.7s-1.5,7.7-3.8,7.7
		c-1.9,0-3.8,3.5-3.8,7.7s-1.5,7.7-3.8,7.7c-1.9,0-3.8,4.2-3.8,9.6c0,6.2-2.3,9.6-5.8,9.6c-3.1,0-5.8,3.5-5.8,7.7s-1.5,7.7-3.8,7.7
		c-1.9,0-3.8,3.5-3.8,7.7s-1.5,7.7-3.8,7.7c-1.9,0-3.8,4.2-3.8,9.6s-1.5,9.6-3.8,9.6c-1.9,0-3.8,3.5-3.8,7.7s-1.5,7.7-3.8,7.7
		c-1.9,0-3.8,3.5-3.8,7.7s-1.5,7.7-3.8,7.7c-1.9,0-3.8,4.2-3.8,9.6c0,6.2-2.3,9.6-5.8,9.6c-3.1,0-5.8,3.5-5.8,7.7s-1.5,7.7-3.8,7.7
		c-1.9,0-3.8,5.4-3.8,11.5c0,6.5-1.5,11.5-3.8,11.5c-1.9,0-3.8,4.2-3.8,9.6s-1.5,9.6-3.8,9.6c-1.9,0-3.8,3.5-3.8,7.7
		s-1.5,7.7-3.8,7.7c-1.9,0-3.8,6.2-3.8,13.5s-1.5,13.5-3.8,13.5c-1.9,0-3.8,3.5-3.8,7.7s-2.7,7.7-5.8,7.7c-3.8,0-5.8,3.8-5.8,11.5
		c0,6.5-1.5,11.5-3.8,11.5c-1.9,0-3.8,6.2-3.8,13.5s-1.5,13.5-3.8,13.5c-1.9,0-3.8,3.5-3.8,7.7s-1.5,7.7-3.8,7.7
		c-1.9,0-3.8,6.2-3.8,13.5s-1.5,13.5-3.8,13.5c-1.9,0-3.8,5.4-3.8,11.5c0,6.5-1.5,11.5-3.8,11.5c-1.9,0-3.8,6.2-3.8,13.5
		c0,9.2-1.9,13.5-5.8,13.5c-4.2,0-5.8,4.2-5.8,15.4c0,8.5-1.5,15.4-3.8,15.4c-1.9,0-3.8,6.2-3.8,13.5s-1.5,13.5-3.8,13.5
		c-1.9,0-3.8,6.9-3.8,15.4s-1.5,15.4-3.8,15.4c-1.9,0-3.8,6.2-3.8,13.5s-1.5,13.5-3.8,13.5c-1.9,0-3.8,7.7-3.8,17.3
		s-1.5,17.3-3.8,17.3c-1.9,0-3.8,8.9-3.8,19.2c0,14.6-1.5,19.2-5.8,19.2s-5.8,4.6-5.8,17.3c0,9.6-1.5,17.3-3.8,17.3
		s-3.8,10.8-3.8,25s-1.5,25-3.8,25c-1.9,0-3.8,9.6-3.8,21.2s-1.5,21.2-3.8,21.2c-2.3,0-3.8,12.3-3.8,28.9s-1.5,28.9-3.8,28.9
		c-2.3,0-3.8,13.5-3.8,32.7s-1.5,32.7-3.8,32.7c-2.3,0-3.8,20.4-3.8,53.9c0,45.4-0.8,53.9-5.8,53.9s-5.8,8.5-5.8,53.1
		c0,45,0.8,53.5,5.8,53.5c4.6,0,5.8-5.8,5.8-28.5c0-16.2,1.5-28.1,3.8-28.1c2.3,0,3.8-9.6,3.8-21.2s1.9-21.2,3.8-21.2
		c2.3,0,3.8-8.5,3.8-19.2c0-10.4,1.9-19.2,3.8-19.2c2.3,0,3.8-7.7,3.8-17.3s1.5-17.3,3.1-17.3c1.5,0,3.5-7.3,4.2-16.2
		c0.4-8.9,2.7-17.3,4.6-18.9c2.3-1.2,3.8-3.5,3.8-5c-1.9-14.2,0.4-25.4,5.4-25.4c4.2,0,5.8-4.6,5.8-17.3c0-9.6,1.9-17.3,3.8-17.3
		c2.3,0,3.8-5,3.8-11.5c0-6.2,1.9-11.5,3.8-11.5c2.3,0,3.8-6.2,3.8-13.5s1.9-13.5,3.8-13.5c2.3,0,3.8-5,3.8-11.5
		c0-6.2,1.9-11.5,3.8-11.5c2.3,0,3.8-6.2,3.8-13.5s1.9-13.5,3.8-13.5c2.3,0,3.8-3.5,3.8-7.7s2.7-7.7,5.8-7.7c3.8,0,5.8-4.2,5.8-13.5
		c0-7.3,1.9-13.5,3.8-13.5c2.3,0,3.8-3.5,3.8-7.7s1.9-7.7,3.8-7.7c2.3,0,3.8-3.5,3.8-7.7s1.9-7.7,3.8-7.7c2.3,0,3.8-6.2,3.8-13.5
		s1.9-13.5,3.8-13.5c2.3,0,3.8-3.5,3.8-7.7s1.9-7.7,3.8-7.7c2.3,0,3.8-3.5,3.8-7.7s2.7-7.7,5.8-7.7c3.5,0,5.8-3.5,5.8-9.6
		c0-5.4,1.9-9.6,3.8-9.6c2.3,0,3.8-3.5,3.8-7.7s1.9-7.7,3.8-7.7c2.3,0,3.8-3.5,3.8-7.7s1.9-7.7,3.8-7.7c2.3,0,3.8-3.8,3.8-8.9
		c0-4.6,3.5-11.2,7.7-14.2s7.7-8.5,7.7-12.3s2.7-6.9,5.8-6.9c3.5,0,5.8-3.5,5.8-8.9c0-4.6,3.5-11.2,7.7-14.2s7.7-8.1,7.7-11.5
		s3.5-8.5,7.7-11.5s7.7-8.9,7.7-12.7c0-7.7,8.5-18.1,15-18.1c2.3,0,4.2-2.7,4.2-6.2s5.4-11.2,11.5-16.9c6.5-5.8,11.5-13.5,11.5-16.9
		c0-7.3,16.6-25.4,23.1-25.4c1.9,0,3.8-3.1,3.8-6.9s3.5-9.2,7.7-12.3s7.7-6.9,7.7-8.5c0-3.8,33.1-37.7,36.6-37.7
		c3.1,0,13.5-10.4,13.5-13.5c0-2.7,33.9-36.6,36.6-36.6c3.1,0,13.5-10.4,13.5-13.5c0-4.6,10.8-13.5,16.2-13.5
		c3.1,0,7.7-3.5,10.8-7.7c3.1-4.2,7.3-7.7,9.6-7.7c2.3,0,6.5-3.5,9.6-7.7c3.1-4.2,8.5-7.7,12.3-7.7s6.9-1.9,6.9-4.2
		c0-6.5,10.4-15,18.1-15c3.8,0,9.6-3.5,12.7-7.7c3.1-4.2,8.1-7.7,11.5-7.7c3.5,0,8.5-3.5,11.5-7.7c3.1-4.2,9.6-7.7,14.2-7.7
		c5.4,0,8.9-2.3,8.9-5.8c0-3.1,3.1-5.8,6.9-5.8s9.2-3.5,12.3-7.7c3.1-4.2,8.5-7.7,12.3-7.7s6.9-1.5,6.9-3.8c0-1.9,4.2-3.8,9.6-3.8
		c5.4,0,9.6-1.5,9.6-3.8c0-1.9,3.5-3.8,7.7-3.8s7.7-1.5,7.7-3.8c0-1.9,3.5-3.8,7.7-3.8c4.2,0,7.7-2.7,7.7-5.8
		c0-3.8,4.2-5.8,13.5-5.8c7.3,0,13.5-1.5,13.5-3.8c0-1.9,3.5-3.8,7.7-3.8s7.7-1.5,7.7-3.8c0-1.9,6.2-3.8,13.5-3.8s13.5-1.5,13.5-3.8
		c0-1.9,3.5-3.8,7.7-3.8s7.7-1.5,7.7-3.8c0-1.9,5.4-3.8,11.5-3.8c6.5,0,11.5-1.5,11.5-3.8c0-1.9,7.7-3.8,17.3-3.8
		c12.7,0,17.3-1.5,17.3-5.8c0-3.8,4.2-5.8,13.5-5.8c7.3,0,13.5-1.5,13.5-3.8c0-1.9,8.9-3.8,19.2-3.8c10.8,0,19.2-1.5,19.2-3.8
		c0-1.9,7.7-3.8,17.3-3.8s17.3-1.5,17.3-3.8s10.8-3.8,25-3.8s25-1.5,25-3.8s14.6-3.8,36.6-3.8s36.6-1.5,36.6-3.8
		c0-5.4,226-5.4,229.1,0c1.2,1.9,17.7,3.8,37,3.8c20.4,0,34.3,1.5,34.3,3.8s9.6,3.8,21.2,3.8s21.2,1.9,21.2,3.8
		c0,2.3,9.6,3.8,21.2,3.8s21.2,1.9,21.2,3.8c0,2.3,7.7,3.8,17.3,3.8s17.3,1.9,17.3,3.8c0,2.3,5.4,3.8,11.5,3.8
		c7.7,0,11.5,1.9,11.5,5.8c0,4.2,4.6,5.8,17.3,5.8c9.6,0,17.3,1.9,17.3,3.8c0,2.3,3.5,3.8,7.7,3.8c4.2,0,7.7,1.9,7.7,3.8
		c0,2.3,6.2,3.8,13.5,3.8c7.3,0,13.5,1.9,13.5,3.8c0,2.3,5.4,3.8,11.5,3.8c6.5,0,11.5,1.9,11.5,3.8c0,2.3,3.5,3.8,7.7,3.8
		c4.2,0,7.7,1.9,7.7,3.8c0,2.3,6.2,3.8,13.5,3.8c9.2,0,13.5,1.9,13.5,5.8c0,3.1,3.5,5.8,7.7,5.8s7.7,1.9,7.7,3.8
		c0,2.3,3.5,3.8,7.7,3.8s7.7,1.9,7.7,3.8c0,2.3,4.2,3.8,9.6,3.8s9.6,1.9,9.6,3.8c0,2.3,3.5,3.8,7.7,3.8s7.7,1.9,7.7,3.8
		c0,2.3,3.5,3.8,7.7,3.8c4.2,0,7.7,1.9,7.7,3.8c0,2.3,4.2,3.8,9.6,3.8c5.4,0,9.6,1.9,9.6,4.2c0,6.2,10,15,16.9,15
		c3.5,0,6.2,1.9,6.2,3.8c0,2.3,3.8,3.8,8.9,3.8c4.6,0,11.2,3.5,14.2,7.7c3.1,4.2,7.7,7.7,10.8,7.7c6.2,0,16.2,9.2,16.2,15
		c0,2.3,3.5,4.2,8.1,4.2c4.6,0,13.1,5.4,18.9,11.5c5.8,6.5,13.1,11.5,16.2,11.5c2.7,0,7.7,3.5,10.8,7.7c3.1,4.2,7.7,7.7,10.4,7.7
		s5,2.7,5,5.8s2.7,5.8,6.2,5.8c3.1,0,12.7,6.9,20.8,15.4c8.1,8.5,15.8,15.4,17.3,15.4c3.1,0,13.5,10.4,13.5,13.5
		c0,5,26.9,28.9,32.7,28.9c3.1,0,5.8,2.7,5.8,5.8c0,3.5,2.3,4.6,5.8,3.5c3.8-1.5,5.8,0,5.8,5.8c0,7.3,38.1,50.4,44.3,50.4
		c3.8,0,13.5,10.8,13.5,15c0,2.3,1.9,4.2,3.8,4.2c2.3,0,3.8,2.7,3.8,5.8c0,6.5,24.6,32.7,30.8,32.7c1.9,0,3.8,3.8,3.8,8.9
		c0,4.6,3.5,11.2,7.7,14.2s7.7,8.1,7.7,11.5s3.5,8.5,7.7,11.5s7.7,8.9,7.7,12.7c0,7.7,8.5,18.1,15,18.1c2.3,0,4.2,3.1,4.2,6.9
		s3.5,9.2,7.7,12.3s7.7,9.6,7.7,14.2c0,5,1.9,8.9,3.8,8.9c2.3,0,3.8,3.5,3.8,7.7s1.9,7.7,3.8,7.7c2.3,0,3.8,3.5,3.8,7.7
		s1.9,7.7,3.8,7.7c2.3,0,3.8,4.2,3.8,9.6c0,6.2,2.3,9.6,5.8,9.6c3.1,0,5.8,3.5,5.8,7.7s1.9,7.7,3.8,7.7c2.3,0,3.8,3.5,3.8,7.7
		s1.9,7.7,3.8,7.7c2.3,0,3.8,4.2,3.8,9.6s1.9,9.6,3.8,9.6c2.3,0,3.8,3.5,3.8,7.7s1.9,7.7,3.8,7.7c2.3,0,3.8,5.4,3.8,11.5
		c0,6.5,1.9,11.5,3.8,11.5c2.3,0,3.8,4.2,3.8,9.6c0,6.2,2.3,9.6,5.8,9.6c3.8,0,5.8,3.8,5.8,11.5c0,6.5,1.9,11.5,3.8,11.5
		c2.3,0,3.8,6.2,3.8,13.5s1.9,13.5,3.8,13.5c2.3,0,3.8,5.4,3.8,11.5c0,6.5,1.9,11.5,3.8,11.5c2.3,0,3.8,6.2,3.8,13.5
		s1.9,13.5,3.8,13.5c2.3,0,3.8,6.9,3.8,15.4s1.9,15.4,3.8,15.4c2.3,0,3.8,7.7,3.8,17.3c0,12.7,1.5,17.3,5.8,17.3
		c4.6,0,5.8,5.4,5.8,25c0,14.2,1.5,25,3.8,25s3.8,12.3,3.8,28.9s1.5,28.9,3.8,28.9s3.8,23.9,3.8,63.5s1.5,63.5,3.8,63.5
		s3.8,17.3,3.8,44.3s1.5,44.3,3.8,44.3s3.8,15.4,3.8,38.5s1.5,38.5,3.8,38.5s3.8,10.8,3.8,25s1.5,25,3.8,25s3.8,9.6,3.8,21.2
		c0,16.2,1.2,21.2,5.8,21.2c4.2,0,5.8,4.2,5.8,15.4c0,8.5,1.9,15.4,3.8,15.4c2.3,0,3.8,7.7,3.8,17.3s1.9,17.3,3.8,17.3
		c2.3,0,3.8,5.4,3.8,11.5c0,6.5,1.9,11.5,3.8,11.5c2.3,0,3.8,6.2,3.8,13.5s1.9,13.5,3.8,13.5c2.3,0,3.8,5.4,3.8,11.5
		c0,6.5,1.9,11.5,3.8,11.5c2.3,0,3.8,4.2,3.8,9.6c0,6.2,2.3,9.6,5.8,9.6c3.8,0,5.8,3.8,5.8,11.5c0,6.5,1.9,11.5,3.8,11.5
		c2.3,0,3.8,4.2,3.8,9.6s1.9,9.6,3.8,9.6c2.3,0,3.8,3.5,3.8,7.7s1.9,7.7,3.8,7.7c2.3,0,3.8,3.5,3.8,7.7s1.9,7.7,3.8,7.7
		c2.3,0,3.8,4.2,3.8,9.6s1.9,9.6,3.8,9.6c2.3,0,3.8,3.5,3.8,7.7s2.7,7.7,5.8,7.7s5.8,3.5,5.8,7.7s1.9,7.7,3.8,7.7
		c2.3,0,3.8,3.5,3.8,7.7s1.9,7.7,3.8,7.7c2.3,0,3.8,4.2,3.8,9.6s1.9,9.6,3.8,9.6c2.3,0,3.8,2.3,3.8,5c0,2.7,3.5,8.9,7.7,13.5
		c4.2,4.6,7.7,11.5,7.7,16.2c0,4.2,1.9,7.7,4.2,7.7c5.8,0,15,10,15,16.2c0,3.1,3.5,7.7,7.7,10.8c4.2,3.1,7.7,8.9,7.7,12.7
		c0,7.3,16.2,25.8,23.1,25.8c1.9,0,3.8,3.1,3.8,6.9s3.5,9.2,7.7,12.3c4.2,3.1,7.7,7.3,7.7,9.6s3.5,6.5,7.7,9.6
		c4.2,3.1,7.7,7.7,7.7,10.8c0,5.4,8.9,16.2,13.5,16.2c3.1,0,13.5,10.4,13.5,13.5c0,3.8,42,44.3,46.2,44.3c1.9,0,3.8,1.9,3.8,3.8
		c0,6.5,41.6,46.2,48.1,46.2c6.2,0,17.3,8.9,17.3,13.5c0,5,26.9,28.9,32.7,28.9c6.9,0,25,16.6,25,23.1c0,1.9,3.5,3.8,7.7,3.8
		s7.7,1.9,7.7,3.8c0,2.3,2.7,3.8,5.8,3.8c3.1,0,5.8,1.9,5.8,3.8c0,2.3,3.1,3.8,6.9,3.8s9.2,3.5,12.3,7.7c3.1,4.2,8.5,7.7,12.3,7.7
		s6.9,1.9,6.9,3.8c0,2.3,4.2,3.8,9.6,3.8s9.6,1.9,9.6,4.2c0,6.2,10,15,16.9,15c3.5,0,6.2,1.9,6.2,3.8c0,2.3,4.2,3.8,9.6,3.8
		s9.6,1.9,9.6,3.8c0,2.3,2.7,3.8,6.2,3.8c3.1,0,8.5,2.7,11.9,5.8c3.1,3.1,7.3,5,9.2,3.8c1.9-1.5,3.5-0.4,3.5,1.5
		c0,2.3,3.5,4.2,7.7,4.2s7.7,2.7,7.7,5.8c0,3.5,3.5,5.8,9.6,5.8c5.4,0,9.6,1.9,9.6,3.8c0,2.3,3.5,3.8,7.7,3.8s7.7,1.9,7.7,3.8
		c0,2.3,3.5,3.8,7.7,3.8s7.7,1.9,7.7,3.8c0,2.3,6.2,3.8,13.5,3.8s13.5,1.9,13.5,3.8c0,2.3,3.5,3.8,7.7,3.8s7.7,1.9,7.7,3.8
		c0,2.3,6.2,3.8,13.5,3.8c9.2,0,13.5,1.9,13.5,5.8s3.8,5.8,11.5,5.8c6.5,0,11.5,1.9,11.5,3.8c0,2.3,6.2,3.8,13.5,3.8
		s13.5,1.9,13.5,3.8c0,2.3,6.9,3.8,15.4,3.8c8.5,0,15.4,1.9,15.4,3.8c0,2.3,7.7,3.8,17.3,3.8s17.3,1.9,17.3,3.8
		c0,2.3,8.9,3.8,19.6,3.8c12.3,0,18.5,1.5,16.9,3.8c-1.5,2.3-1.2,3.8,0.8,3.5c1.5-0.4,13.1-0.4,25.4,0c16.6,0.4,21.9,1.9,21.9,6.2
		c0,4.6,6.5,5.8,36.6,5.8c21.9,0,36.6,1.5,36.6,3.8s35.8,3.8,100.1,3.8c64.3,0,100.1-1.5,100.1-3.8s13.5-3.8,32.7-3.8
		c26.6,0,32.7-1.2,32.7-5.8c0-4.6,5.4-5.8,25-5.8c14.2,0,25-1.5,25-3.8c0-1.9,7.7-3.8,17.3-3.8s17.3-1.5,17.3-3.8
		c0-1.9,9.6-3.8,21.2-3.8s21.2-1.5,21.2-3.8c0-1.9,5.4-3.8,11.5-3.8c6.5,0,11.5-1.5,11.5-3.8c0-1.9,6.2-3.8,13.5-3.8
		c7.3,0,13.5-1.5,13.5-3.8c0-1.9,5.4-3.8,11.5-3.8c7.7,0,11.5-1.9,11.5-5.8s4.2-5.8,13.5-5.8c7.3,0,13.5-1.5,13.5-3.8
		c0-1.9,5.4-3.8,11.5-3.8c6.5,0,11.5-1.5,11.5-3.8c0-1.9,4.2-3.8,9.6-3.8c5.4,0,9.6-1.5,9.6-3.8c0-1.9,3.5-3.8,7.7-3.8
		c4.2,0,7.7-1.5,7.7-3.8c0-1.9,5.4-3.8,11.5-3.8c6.5,0,11.5-1.5,11.5-3.8c0-1.9,4.2-3.8,9.6-3.8c6.2,0,9.6-2.3,9.6-5.8
		c0-3.1,3.5-5.8,7.7-5.8c4.2,0,7.7-1.5,7.7-3.8c0-1.9,3.5-3.8,7.7-3.8c4.2,0,7.7-1.5,7.7-3.8c0-1.9,3.8-3.8,8.9-3.8
		c4.6,0,11.2-3.5,14.2-7.7s8.5-7.7,12.3-7.7s6.9-1.5,6.9-3.8c0-1.9,3.5-3.8,7.7-3.8c4.2,0,7.7-2.7,7.7-5.8c0-3.1,2.7-5.8,5.8-5.8
		s5.8-1.9,5.8-4.2c0-1.9,1.5-3.1,3.5-1.5c1.9,1.2,6.2-0.8,9.2-3.8c3.5-3.1,8.5-5.8,11.2-5.8c3.1,0,7.7-3.5,10.8-7.7
		s7.7-7.7,10.4-7.7s5-1.5,5-3.8c0-1.9,3.5-3.8,7.7-3.8s7.7-1.9,7.7-4.2c0-6.2,10-15,16.9-15c3.5,0,6.2-1.5,6.2-3.8
		c0-1.9,1.9-3.8,4.2-3.8c2.3,0,9.2-5,15-11.5c5.8-6.2,13.5-11.5,16.9-11.5c3.5,0,6.2-1.9,6.2-4.2c0-4.2,9.6-15,13.5-15
		s44.3-42,44.3-46.2c0-1.9,1.9-3.8,3.8-3.8c4.2,0,46.2-40.4,46.2-44.3c0-3.1,10.4-13.5,13.5-13.5c4.6,0,21.2-19.2,21.2-25
		c0-3.1,1.9-5.8,3.8-5.8c2.3,0,3.8-1.9,3.8-3.8c0-5.4,17.7-23.1,23.1-23.1c1.9,0,3.8-3.1,3.8-6.9s3.5-9.2,7.7-12.3
		c4.2-3.1,7.7-7.7,7.7-10.4c0-2.7,1.9-5,3.8-5c2.3,0,3.8-3.1,3.8-6.9s3.5-9.2,7.7-12.3c4.2-3.1,7.7-8.5,7.7-12.3s2.7-6.9,5.8-6.9
		s5.8-2.7,5.8-5.8c0-3.1,1.9-5.8,3.8-5.8c2.3,0,3.8-3.5,3.8-7.7s1.9-7.7,3.8-7.7c2.3,0,3.8-3.1,3.8-6.9s3.5-9.2,7.7-12.3
		c4.2-3.1,7.7-9.6,7.7-14.2c0-5,1.9-8.9,3.8-8.9c2.3,0,3.8-3.5,3.8-7.7s2.7-7.7,5.8-7.7s5.8-3.5,5.8-7.7s1.9-7.7,3.8-7.7
		c2.3,0,3.8-4.2,3.8-9.6s1.9-9.6,3.8-9.6c2.3,0,3.8-3.5,3.8-7.7s1.9-7.7,3.8-7.7c2.3,0,3.8-3.5,3.8-7.7s1.9-7.7,3.8-7.7
		c2.3,0,3.8-4.2,3.8-9.6c0-7.7,1.9-9.6,9.6-9.6c8.5,0,9.6,1.5,9.6,13.5c0,9.2-1.9,13.5-5.8,13.5s-5.8,3.8-5.8,11.5
		c0,6.5-1.5,11.5-3.8,11.5c-1.9,0-3.8,4.2-3.8,9.6s-1.5,9.6-3.8,9.6c-1.9,0-3.8,5.4-3.8,11.5c0,6.5-1.5,11.5-3.8,11.5
		c-1.9,0-3.8,3.5-3.8,7.7s-1.5,7.7-3.8,7.7c-1.9,0-3.8,4.2-3.8,9.6s-1.5,9.6-3.8,9.6c-1.9,0-3.8,3.5-3.8,7.7s-2.7,7.7-5.8,7.7
		s-5.8,3.5-5.8,7.7s-1.5,7.7-3.8,7.7c-1.9,0-3.8,4.2-3.8,9.6s-1.5,9.6-3.8,9.6c-1.9,0-3.8,3.5-3.8,7.7s-1.5,7.7-3.8,7.7
		c-1.9,0-3.8,3.5-3.8,7.7s-1.5,7.7-3.8,7.7c-1.9,0-3.8,4.2-3.8,9.6s-1.5,9.6-3.8,9.6c-1.9,0-3.8,3.5-3.8,7.7s-1.9,7.7-4.2,7.7
		c-6.5,0-15,10.4-15,18.9c0,4.6-1.5,8.1-3.8,8.1c-1.9,0-3.8,3.1-3.8,6.9s-3.5,9.2-7.7,12.3c-4.2,3.1-7.7,8.5-7.7,12.3
		s-1.5,6.9-3.8,6.9c-1.9,0-3.8,2.7-3.8,5.8c0,3.1-2.7,5.8-5.8,5.8s-5.8,3.1-5.8,6.9s-3.5,9.2-7.7,12.3c-4.2,3.1-7.7,8.5-7.7,12.3
		s-1.5,6.9-3.8,6.9c-1.9,0-3.8,2.3-3.8,5c0,2.7-3.5,7.3-7.7,10.4c-4.2,3.1-7.7,8.5-7.7,12.3s-1.9,6.9-3.8,6.9
		c-6.5,0-30.8,26.2-30.8,32.7c0,5.8-23.9,32.7-28.9,32.7c-3.1,0-13.5,10.4-13.5,13.5c0,2.7-33.9,36.6-36.6,36.6
		c-3.1,0-13.5,10.4-13.5,13.5c0,2.7-33.9,36.6-36.6,36.6c-3.1,0-13.5,10.4-13.5,13.5c0,5-26.9,28.9-32.7,28.9s-25,16.2-25,21.2
		c0,4.6-11.2,13.5-16.9,13.5c-3.5,0-6.2,1.9-6.2,3.8c0,2.3-2.3,3.8-5,3.8s-7.3,3.5-10.4,7.7s-7.7,7.7-10.8,7.7
		c-5.4,0-16.2,8.9-16.2,13.5c0,5-11.2,13.5-18.1,13.5c-3.8,0-9.6,3.5-12.7,7.7s-8.5,7.7-12.3,7.7s-6.9,1.9-6.9,3.8
		c0,2.3-3.5,3.8-8.1,3.8c-8.5,0-18.9,8.5-18.9,15c0,2.3-3.5,4.2-7.7,4.2c-4.2,0-7.7,1.9-7.7,3.8c0,2.3-3.1,3.8-6.9,3.8
		s-9.2,3.5-12.3,7.7s-9.6,7.7-14.2,7.7c-5,0-8.9,1.9-8.9,3.8c0,2.3-3.5,3.8-7.7,3.8c-4.2,0-7.7,1.9-7.7,3.8c0,2.3-3.5,3.8-7.7,3.8
		c-4.2,0-7.7,1.9-7.7,3.8c0,2.3-4.2,3.8-9.6,3.8c-6.2,0-9.6,2.3-9.6,5.8c0,3.1-3.5,5.8-7.7,5.8c-4.2,0-7.7,1.9-7.7,3.8
		c0,2.3-3.5,3.8-7.7,3.8c-4.2,0-7.7,1.9-7.7,3.8c0,2.3-4.2,3.8-9.6,3.8c-5.4,0-9.6,1.9-9.6,3.8c0,2.3-5,3.8-11.5,3.8
		c-6.2,0-11.5,1.9-11.5,3.8c0,2.3-4.2,3.8-9.6,3.8c-5.4,0-9.6,1.9-9.6,3.8c0,2.3-5,3.8-11.5,3.8c-7.7,0-11.5,1.9-11.5,5.8
		c0,3.1-3.5,5.8-7.7,5.8c-4.2,0-7.7,1.9-7.7,3.8c0,2.3-6.2,3.8-13.5,3.8c-7.3,0-13.5,1.9-13.5,3.8c0,2.3-5,3.8-11.2,3.8
		s-11.9,1.5-12.7,3.5c-0.4,2.3-8.5,4.2-17.3,4.6c-8.9,0.8-15.4,2.3-14.2,4.2c1.2,1.5-4.2,3.1-11.5,3.1c-7.7,0-13.9,1.9-13.9,3.8
		c0,2.3-7.7,3.8-17.3,3.8c-12.7,0-17.3,1.5-17.3,5.8s-4.6,5.8-17.3,5.8c-9.6,0-17.3,1.9-17.3,3.8c0,2.3-9.6,3.8-21.2,3.8
		s-21.2,1.9-21.2,3.8c0,2.3-12.3,3.8-28.9,3.8c-16.6,0-28.9,1.5-28.9,3.8s-13.5,3.8-32.7,3.8s-32.7,1.5-32.7,3.8
		s-44.3,3.8-125.1,3.8s-125.1-1.5-125.1-3.8s-13.5-3.8-32.7-3.8s-32.7-1.5-32.7-3.8s-10.8-3.8-25-3.8c-14.2,0-25-1.5-25-3.8
		c0-1.9-9.6-3.8-21.2-3.8s-21.2-1.5-21.2-3.8c0-1.9-9.6-3.8-21.2-3.8c-16.2,0-21.2-1.2-21.2-5.8c0-4.2-4.2-5.8-15.4-5.8
		c-8.5,0-15.4-1.5-15.4-3.8c0-1.9-6.2-3.8-13.5-3.8s-13.5-1.5-13.5-3.8c0-1.9-5-3.8-11.5-3.8c-6.2,0-11.5-1.5-11.5-3.8
		c0-1.9-7.7-3.8-17.3-3.8s-17.3-1.5-17.3-3.8c0-1.9-3.5-3.8-7.7-3.8s-7.7-1.5-7.7-3.8c0-1.9-6.2-3.8-13.5-3.8
		c-9.2,0-13.5-1.9-13.5-5.8s-3.8-5.8-11.5-5.8c-6.2,0-11.5-1.5-11.5-3.8c0-1.9-4.2-3.8-9.6-3.8s-9.6-1.5-9.6-3.8
		c0-1.9-3.5-3.8-7.7-3.8s-7.7-1.5-7.7-3.8c0-1.9-6.2-3.8-13.5-3.8s-13.5-1.5-13.5-3.8c0-1.9-3.5-3.8-7.7-3.8s-7.7-1.5-7.7-3.8
		c0-1.9-3.5-3.8-7.7-3.8s-7.7-2.7-7.7-5.8c0-3.1-3.5-5.8-7.7-5.8s-7.7-1.5-7.7-3.8c0-1.9-4.2-3.8-9.6-3.8s-9.6-1.5-9.6-3.8
		c0-1.9-3.1-3.8-6.9-3.8s-9.2-3.5-12.3-7.7s-9.6-7.7-14.2-7.7c-5,0-8.9-1.5-8.9-3.8c0-1.9-3.5-3.8-7.7-3.8s-7.7-1.5-7.7-3.8
		c0-1.9-3.5-3.8-7.7-3.8s-7.7-1.9-7.7-4.2c0-6.5-10.4-15-18.1-15c-3.8,0-9.6-3.5-12.7-7.7s-8.1-7.7-11.5-7.7s-8.5-3.5-11.5-7.7
		s-9.6-7.7-14.2-7.7c-5,0-8.9-1.9-8.9-4.2c0-5.8-10-15-16.2-15c-3.1,0-7.7-3.5-10.8-7.7c-3.1-4.2-7.7-7.7-10.4-7.7
		c-2.7,0-5-1.5-5-3.8c0-1.9-2.7-3.8-5.8-3.8c-3.1,0-5.8-1.5-5.8-3.8c0-1.9-2.7-3.8-5.8-3.8c-3.1,0-5.8-1.9-5.8-3.8
		c0-5.4-17.7-23.1-23.1-23.1c-1.9,0-3.8-1.5-3.8-3.8c0-1.9-2.7-3.8-5.8-3.8c-5.8,0-25-16.2-25-21.2c0-3.1-18.1-21.2-21.2-21.2
		c-2.7,0-28.9-26.2-28.9-28.9c0-3.1-18.1-21.2-21.2-21.2c-2.7,0-28.9-26.2-28.9-28.9c0-3.8-18.9-21.2-23.1-21.2
		c-1.9,0-3.8-3.1-3.8-6.9s-3.5-9.2-7.7-12.3c-4.2-3.1-7.7-6.9-7.7-8.9s-5-8.5-11.5-14.2c-6.2-5.8-11.5-13.5-11.5-16.9
		s-1.9-6.2-3.8-6.2c-6.9,0-23.1-18.5-23.1-25.8c0-3.8-3.5-9.6-7.7-12.7c-4.2-3.1-7.7-7.7-7.7-10.8c0-6.2-9.2-16.2-15-16.2
		c-2.3,0-4.2-3.8-4.2-8.9c0-4.6-3.5-11.2-7.7-14.2c-4.2-3.1-7.7-8.1-7.7-11.5s-3.5-8.5-7.7-11.5c-4.2-3.1-7.7-9.6-7.7-14.2
		c0-5-1.5-8.9-3.8-8.9c-1.9,0-3.8-3.5-3.8-7.7s-1.9-7.7-4.2-7.7c-6.5,0-15-10.4-15-18.9c0-4.6-1.5-8.1-3.8-8.1
		c-1.9,0-3.8-3.5-3.8-7.7s-1.5-7.7-3.8-7.7c-1.9,0-3.8-3.5-3.8-7.7s-1.5-7.7-3.8-7.7c-1.9,0-3.8-4.2-3.8-9.6s-1.5-9.6-3.8-9.6
		c-1.9,0-3.8-3.5-3.8-7.7s-2.7-7.7-5.8-7.7c-3.1,0-5.8-3.5-5.8-7.7s-1.5-7.7-3.8-7.7c-1.9,0-3.8-5.4-3.8-11.9
		c0-6.5-1.5-10.8-3.8-9.2c-2.3,1.5-3.8-2.7-3.8-9.2c0-6.5-1.5-11.9-3.8-11.9c-1.9,0-3.8-3.5-3.8-7.7s-1.5-7.7-3.8-7.7
		c-1.9,0-3.8-6.2-3.8-13.5s-1.5-13.5-3.8-13.5c-1.9,0-3.8-3.5-3.8-7.7s-1.5-7.7-3.8-7.7c-1.9,0-3.8-6.2-3.8-13.5
		c0-9.2-1.9-13.5-5.8-13.5s-5.8-3.8-5.8-11.5c0-6.2-1.5-11.5-3.8-11.5c-1.9,0-3.8-7.7-3.8-17.3s-1.5-17.3-3.8-17.3
		c-1.9,0-3.8-5-3.8-11.5c0-6.2-1.5-11.5-3.8-11.5c-1.9,0-3.8-7.7-3.8-17.3s-1.5-17.3-3.8-17.3c-1.9,0-3.8-7.7-3.8-17.3
		s-1.5-17.3-3.8-17.3c-1.9,0-3.8-8.5-3.8-19.2c0-14.6-1.5-19.2-5.8-19.2c-4.6,0-5.8-5.4-5.8-25c0-14.2-1.5-25-3.8-25
		c-2.3,0-3.8-14.2-3.8-34.6s-1.5-34.6-3.8-34.6c-2.3,0-3.8-38.5-3.8-107.8s-1.5-107.8-3.8-107.8c-2.3,0-3.8-10.8-3.8-25
		s-1.5-25-3.8-25c-1.9,0-3.8-6.9-3.8-15.4s-1.5-15.4-3.8-15.4c-1.9,0-3.8-7.7-3.8-17.3c0-12.7-1.5-17.3-5.8-17.3
		c-3.8,0-5.8-4.2-5.8-13.5c0-7.3-1.5-13.5-3.8-13.5c-1.9,0-3.8-5-3.8-11.5c0-6.2-1.5-11.5-3.8-11.5c-1.9,0-3.8-3.5-3.8-7.7
		s-1.5-7.7-3.8-7.7c-1.9,0-3.8-4.2-3.8-9.6s-1.5-9.6-3.8-9.6c-1.9,0-3.8-3.5-3.8-7.7s-1.5-7.7-3.8-7.7c-1.9,0-3.8-3.5-3.8-7.7
		s-2.7-7.7-5.8-7.7c-3.5,0-5.8-3.5-5.8-9.6c0-5.4-1.5-9.6-3.8-9.6c-1.9,0-3.8-3.1-3.8-6.9s-3.5-9.2-7.7-12.3
		c-4.2-3.1-7.7-9.2-7.7-13.5s-3.5-10.4-7.7-13.5c-4.2-3.1-7.7-8.5-7.7-12.3s-1.9-6.9-3.8-6.9c-6.5,0-23.1-18.1-23.1-25
		c0-5.8-23.9-32.7-28.9-32.7c-3.1,0-21.2-18.1-21.2-21.2c0-3.8-34.3-36.6-38.5-36.6c-1.9,0-3.8-1.5-3.8-3.8c0-1.9-3.5-3.8-7.7-3.8
		c-4.2,0-7.7-1.9-7.7-3.8c0-6.9-18.5-23.1-25.8-23.1c-3.8,0-9.6-3.5-12.7-7.7s-7.7-7.7-10.8-7.7c-6.2,0-16.2-9.2-16.2-15
		c0-2.3-4.2-4.2-9.6-4.2c-5.4,0-9.6-1.5-9.6-3.8c0-1.9-3.5-3.8-7.7-3.8c-4.2,0-7.7-1.5-7.7-3.8c0-1.9-3.5-3.8-7.7-3.8
		c-4.2,0-7.7-1.5-7.7-3.8c0-1.9-4.2-3.8-9.6-3.8c-5.4,0-9.6-1.5-9.6-3.8c0-1.9-3.5-3.8-7.7-3.8c-4.2,0-7.7-1.5-7.7-3.8
		c0-1.9-5-3.8-11.5-3.8c-7.7,0-11.5-1.9-11.5-5.8c0-3.5-3.5-5.8-9.6-5.8c-5.4,0-9.6-1.5-9.6-3.8c0-1.9-5-3.8-11.5-3.8
		c-6.2,0-11.5-1.5-11.5-3.8c0-1.9-7.7-3.8-17.3-3.8s-17.3-1.5-17.3-3.8c0-1.9-6.9-3.8-15.4-3.8c-8.5,0-15.4-1.5-15.4-3.8
		s-11.5-3.8-27.3-3.8c-16.9,0-26.2-1.5-24.6-3.8c1.5-2.7-26.9-3.8-82.4-3.8c-54.3,0-85.1,1.5-85.1,3.8s-10.8,3.8-25,3.8
		c-14.2,0-25,1.5-25,3.8s-9.6,3.8-21.2,3.8s-21.2,1.9-21.2,3.8c0,2.3-5,3.8-11.5,3.8c-6.2,0-11.5,1.9-11.5,3.8c0,2.3-5,3.8-11.5,3.8
		c-6.2,0-11.5,1.9-11.5,3.8c0,2.3-6.2,3.8-13.5,3.8c-9.2,0-13.5,1.9-13.5,5.8c0,3.1-3.5,5.8-7.7,5.8c-4.2,0-7.7,1.9-7.7,3.8
		c0,2.3-6.2,3.8-13.5,3.8c-7.3,0-13.5,1.9-13.5,3.8c0,2.3-3.5,3.8-7.7,3.8c-4.2,0-7.7,1.9-7.7,3.8c0,2.3-3.5,3.8-7.7,3.8
		s-7.7,1.9-7.7,3.8c0,2.3-2.7,3.8-5.8,3.8s-5.8,1.9-5.8,3.8c0,2.3-3.5,3.8-7.7,3.8s-7.7,2.7-7.7,5.8s-3.1,5.8-6.9,5.8
		s-9.2,3.5-12.3,7.7s-8.9,7.7-12.7,7.7c-4.2,0-12.3,5.4-18.1,11.5c-5.8,6.5-13.5,11.5-16.9,11.5c-3.5,0-6.2,2.7-6.2,5.8
		s-1.9,5.8-4.2,5.8c-2.3,0-10.8,6.9-18.9,15.4s-17.7,15.4-20.8,15.4c-3.5,0-6.2,1.9-6.2,3.8c0,2.3-2.7,3.8-5.8,3.8s-5.8,2.7-5.8,5.8
		s-1.5,5.8-3.8,5.8c-1.9,0-3.8,2.7-3.8,6.2c0,3.1-8.5,14.2-19.2,24.6c-10.4,10.4-19.2,20.4-19.2,22.7s-2.7,4.2-5.8,4.2
		c-3.1,0-5.8,2.7-5.8,6.2s-5,11.2-11.5,16.9c-6.2,5.8-11.5,14.2-11.5,18.9c0,4.6-1.5,8.1-3.8,8.1c-1.9,0-3.8,2.7-3.8,6.2
		c0,6.9-8.9,16.9-15,16.9c-2.3,0-4.2,3.5-4.2,7.7s-1.5,7.7-3.8,7.7c-1.9,0-3.8,4.2-3.8,9.6s-1.5,9.6-3.8,9.6c-1.9,0-3.8,3.5-3.8,7.7
		s-1.5,7.7-3.8,7.7c-1.9,0-3.8,3.5-3.8,7.7s-1.5,7.7-3.8,7.7c-1.9,0-3.8,4.2-3.8,9.6s-1.5,9.6-3.8,9.6c-1.9,0-3.8,5.4-3.8,11.5
		c0,7.7-1.9,11.5-5.8,11.5s-5.8,4.2-5.8,13.5c0,7.3-1.5,13.5-3.8,13.5c-1.9,0-3.8,5.4-3.8,11.5c0,6.5-1.5,11.5-3.8,11.5
		c-1.9,0-3.8,7.7-3.8,17.3s-1.5,17.3-3.8,17.3c-1.9,0-3.8,9.6-3.8,21.2s-1.5,21.2-3.8,21.2c-2.3,0-3.8,14.6-3.8,36.6
		s-1.5,36.6-3.8,36.6c-2.3,0-3.8,21.9-3.8,57.7s1.5,57.7,3.8,57.7c2.3,0,3.8,25,3.8,67.4s1.5,67.4,3.8,67.4c2.3,0,3.8,13.5,3.8,32.7
		s1.5,32.7,3.8,32.7c2.3,0,3.8,12.3,3.8,28.9s1.5,28.9,3.8,28.9c2.3,0,3.8,10.8,3.8,25s1.5,25,3.8,25c2.3,0,3.8,9.6,3.8,21.2
		c0,16.2,1.2,21.2,5.8,21.2c4.6,0,5.8,5,5.8,21.2c0,11.5,1.9,21.2,3.8,21.2c2.3,0,3.8,7.7,3.8,17.3s1.9,17.3,3.8,17.3
		c2.3,0,3.8,6.9,3.8,15.4s1.9,15.4,3.8,15.4c2.3,0,3.8,6.2,3.8,13.5s1.9,13.5,3.8,13.5c2.3,0,3.8,6.9,3.8,15.4
		c0,8.5,1.9,15.4,3.8,15.4c2.3,0,3.8,6.2,3.8,13.5c0,9.2,1.9,13.5,5.8,13.5s5.8,3.8,5.8,11.5c0,6.5,1.9,11.5,3.8,11.5
		c2.3,0,3.8,6.2,3.8,13.5s1.9,13.5,3.8,13.5c2.3,0,3.8,5.4,3.8,11.5c0,6.5,1.9,11.5,3.8,11.5c2.3,0,3.8,6.2,3.8,13.5
		s1.9,13.5,3.8,13.5c2.3,0,3.8,3.5,3.8,7.7s1.9,7.7,3.8,7.7c2.3,0,3.8,6.2,3.8,13.5c0,9.2,1.9,13.5,5.8,13.5c3.1,0,5.8,3.5,5.8,7.7
		s1.9,7.7,3.8,7.7c2.3,0,3.8,6.2,3.8,13.5s1.9,13.5,3.8,13.5c2.3,0,3.8,3.5,3.8,7.7s1.9,7.7,3.8,7.7c2.3,0,3.8,3.5,3.8,7.7
		s1.9,7.7,3.8,7.7c2.3,0,3.8,6.2,3.8,13.5s1.9,13.5,3.8,13.5c2.3,0,3.8,3.5,3.8,7.7s1.9,7.7,3.8,7.7c2.3,0,3.8,3.5,3.8,7.7
		s2.7,7.7,5.8,7.7c3.5,0,5.8,3.5,5.8,9.6c0,5.4,1.9,9.6,3.8,9.6c2.3,0,3.8,3.5,3.8,7.7s1.9,7.7,3.8,7.7c2.3,0,3.8,3.5,3.8,7.7
		s1.9,7.7,3.8,7.7c2.3,0,3.8,4.2,3.8,9.6s1.9,9.6,3.8,9.6c2.3,0,3.8,2.7,3.8,6.2c0,6.9,8.9,16.9,15,16.9c2.3,0,4.2,3.5,4.2,7.7
		s1.9,7.7,3.8,7.7c2.3,0,3.8,4.2,3.8,9.6s1.9,9.6,3.8,9.6c2.3,0,3.8,3.1,3.8,6.9s3.5,9.2,7.7,12.3c4.2,3.1,7.7,9.6,7.7,14.2
		c0,5,1.9,8.9,3.8,8.9c2.3,0,3.8,3.5,3.8,7.7s1.9,7.7,4.2,7.7c6.2,0,15,10,15,16.9c0,3.5,1.9,6.2,3.8,6.2c2.3,0,3.8,2.7,3.8,5.8
		c0,3.1,1.9,5.8,3.8,5.8c2.3,0,3.8,3.1,3.8,6.9s3.5,9.2,7.7,12.3c4.2,3.1,7.7,8.5,7.7,12.3s2.7,6.9,5.8,6.9s5.8,2.7,5.8,5.8
		c0,3.1,1.9,5.8,3.8,5.8c2.3,0,3.8,3.1,3.8,6.9s3.5,9.2,7.7,12.3c4.2,3.1,7.7,8.1,7.7,11.5s3.5,8.5,7.7,11.5
		c4.2,3.1,7.7,7.7,7.7,10.4c0,2.7,2.7,5,5.8,5s5.8,2.7,5.8,6.2s5.4,11.2,11.5,16.9c6.5,5.8,11.5,13.5,11.5,16.9
		c0,6.2,16.2,25.4,21.2,25.4c4.6,0,13.5,11.2,13.5,16.9c0,3.5,1.9,6.2,3.8,6.2c2.3,0,3.8,1.9,3.8,3.8c0,4.2,32.7,38.5,36.6,38.5
		c4.6,0,13.5,11.2,13.5,17.3c0,6.5,32,40.4,38.5,40.4c1.9,0,3.8,1.9,3.8,3.8c0,5.4,40.8,46.2,46.2,46.2c1.9,0,3.8,1.9,3.8,3.8
		c0,5.4,40.8,46.2,46.2,46.2c1.9,0,3.8,1.9,3.8,3.8c0,2.3,3.5,3.8,7.7,3.8c4.2,0,7.7,1.9,7.7,3.8c0,4.2,25,30.8,28.9,30.8
		s21.2,18.9,21.2,23.1c0,1.9,3.1,3.8,6.9,3.8s9.2,3.5,12.3,7.7c3.1,4.2,7.3,7.7,9.6,7.7c2.3,0,6.5,3.5,9.6,7.7
		c3.1,4.2,7.7,7.7,10.8,7.7c5.4,0,16.2,8.9,16.2,13.5c0,5,11.2,13.5,17.3,13.5c3.5,0,11.5,5.4,17.3,11.5
		c5.8,6.5,12.7,11.5,15.4,11.5c5.4,0,15.4,9.6,15.4,15c0,2.3,3.8,4.2,8.9,4.2c4.6,0,11.2,3.5,14.2,7.7c3.1,4.2,8.1,7.7,11.5,7.7
		c3.5,0,8.5,3.5,11.5,7.7c3.1,4.2,8.9,7.7,12.7,7.7c7.7,0,18.1,8.5,18.1,15c0,2.3,3.1,4.2,6.9,4.2s9.2,3.5,12.3,7.7
		s9.6,7.7,14.2,7.7c5,0,8.9,1.9,8.9,3.8c0,2.3,3.1,3.8,6.9,3.8s9.2,3.5,12.3,7.7s9.6,7.7,14.2,7.7c5.4,0,8.9,2.3,8.9,5.8
		c0,3.1,3.5,5.8,7.7,5.8c4.2,0,7.7,1.9,7.7,3.8c0,2.3,3.1,3.8,6.9,3.8s9.2,3.5,12.3,7.7s9.6,7.7,14.2,7.7c5,0,8.9,1.9,8.9,3.8
		c0,2.3,3.5,3.8,7.7,3.8c4.2,0,7.7,1.9,7.7,3.8c0,2.3,3.5,3.8,7.7,3.8c4.2,0,7.7,2.7,7.7,5.8c0,3.5,3.5,5.8,9.6,5.8
		c5.4,0,9.6,1.9,9.6,3.8c0,2.3,3.5,3.8,7.7,3.8s7.7,1.9,7.7,3.8c0,2.3,3.5,3.8,7.7,3.8s7.7,1.9,7.7,3.8c0,2.3,6.2,3.8,13.5,3.8
		s13.5,1.9,13.5,3.8c0,2.3,3.5,3.8,7.7,3.8s7.7,1.9,7.7,3.8c0,2.3,3.5,3.8,7.7,3.8c4.2,0,7.7,1.9,7.7,3.8c0,2.3,4.2,3.8,9.6,3.8
		c6.2,0,9.6,2.3,9.6,5.8c0,3.8,3.8,5.8,11.5,5.8c6.5,0,11.5,1.9,11.5,3.8c0,2.3,4.2,3.8,9.6,3.8c5.4,0,9.6,1.9,9.6,3.8
		c0,2.3,5,3.8,11.2,3.8c6.2,0,11.9,1.9,12.7,3.8c0.8,2.3,6.9,4.2,13.9,5c6.5,0.4,12.3,1.9,12.3,3.8c0,1.5,3.5,2.7,7.7,2.7
		c4.2,0,7.7,1.9,7.7,3.8c0,2.3,5.4,3.8,11.5,3.8c7.7,0,11.5,1.9,11.5,5.8s4.2,5.8,13.5,5.8c7.3,0,13.5,1.9,13.5,3.8
		c0,2.3,5.4,3.8,11.5,3.8c6.5,0,11.5,1.9,11.5,3.8c0,2.3,7.7,3.8,17.3,3.8s17.3,1.9,17.3,3.8c0,2.3,5.4,3.8,11.5,3.8
		c6.5,0,11.5,1.9,11.5,3.8c0,2.3,7.7,3.8,17.3,3.8s17.3,1.9,17.3,3.8c0,2.3,7.7,3.8,17.3,3.8c12.7,0,17.3,1.5,17.3,5.8
		s4.2,5.8,15.4,5.8c8.5,0,15.4,1.9,15.4,3.8c0,2.3,7.7,3.8,17.3,3.8s17.3,1.9,17.3,3.8c0,2.3,10.8,3.8,24.6,3.8
		c13.5,0,25.4,1.5,26.2,3.5c0.8,2.3,11.9,4.2,25.4,4.6c13.1,0.4,23.9,2.3,23.9,4.2c0,1.5,11.2,3.1,25,3.1c14.2,0,25,1.5,25,3.8
		c0,2.3,16.6,3.8,42.3,3.8c35,0,42.3,1.2,42.3,5.8c0,5,11.2,5.8,78.9,5.8c50,0,78.9,1.5,78.9,3.8c0,2.3,12.3,3.8,28.9,3.8
		S2908,11872.6,2908,11870.3z M927.8,9227.9c3.1-3.1,5.4-8.5,5.4-11.5c0-3.5,1.9-6.2,4.2-6.2c4.2,0,15-9.6,15-13.5
		c0-5,35-36.6,40.4-36.6c6.2,0,17.3-8.9,17.3-13.5s10.8-13.5,16.2-13.5c3.1,0,7.7-3.5,10.8-7.7s7.7-7.7,10.4-7.7s5-1.5,5-3.8
		c0-1.9,3.5-3.8,7.7-3.8s7.7-1.5,7.7-3.8c0-1.9,3.5-3.8,7.7-3.8s7.7-1.9,7.7-4.2c0-6.5,10.4-15,18.9-15c4.6,0,8.1-1.5,8.1-3.8
		c0-1.9,3.5-3.8,7.7-3.8s7.7-1.5,7.7-3.8c0-1.9,3.5-3.8,7.7-3.8s7.7-1.5,7.7-3.8c0-1.9,4.2-3.8,9.6-3.8s9.6-1.5,9.6-3.8
		c0-1.9,3.5-3.8,7.7-3.8s7.7-1.5,7.7-3.8c0-1.9,6.2-3.8,13.5-3.8c9.2,0,13.5-1.9,13.5-5.8c0-3.1,3.5-5.8,7.7-5.8s7.7-1.5,7.7-3.8
		c0-1.9,5.4-3.8,11.5-3.8c6.5,0,11.5-1.5,11.5-3.8c0-1.9,6.2-3.8,13.5-3.8c7.3,0,13.5-1.5,13.5-3.8c0-1.9,7.7-3.8,17.3-3.8h17.3
		v-17.3c0-12.7-1.5-17.3-5.8-17.3c-4.2,0-5.8-4.2-5.8-15.4c0-8.5-1.5-15.4-3.8-15.4c-1.9,0-3.8-6.2-3.8-13.5s-1.5-13.5-3.8-13.5
		c-1.9,0-3.8-5-3.8-11.5c0-6.2-1.5-11.5-3.8-11.5c-1.9,0-3.8,1.9-3.8,3.8c0,2.3-7.7,3.8-17.3,3.8s-17.3,1.9-17.3,3.8
		c0,2.3-5,3.8-11.2,3.8c-6.2,0-11.9,1.5-12.7,3.8c-0.4,1.9-6.5,3.8-13.5,4.6c-6.5,0.4-11.2,2.3-10.4,3.8c1.2,1.5-2.3,3.1-7.7,3.1
		c-5.4,0-10,1.9-10,3.8c0,2.3-6.2,3.8-13.5,3.8c-9.2,0-13.5,1.9-13.5,5.8c0,3.1-3.5,5.8-7.7,5.8s-7.7,1.9-7.7,3.8
		c0,2.3-3.5,3.8-7.7,3.8s-7.7,1.9-7.7,3.8c0,2.3-4.2,3.8-9.6,3.8s-9.6,1.9-9.6,3.8c0,2.3-3.5,3.8-7.7,3.8s-7.7,1.9-7.7,3.8
		c0,2.3-3.5,3.8-7.7,3.8s-7.7,1.9-7.7,3.8c0,2.3-4.2,3.8-9.6,3.8c-6.2,0-9.6,2.3-9.6,5.8c0,3.1-3.1,5.8-6.9,5.8s-9.2,3.5-12.3,7.7
		c-3.1,4.2-8.1,7.7-11.5,7.7s-8.5,3.5-11.5,7.7c-3.1,4.2-8.9,7.7-12.7,7.7c-7.7,0-18.1,8.5-18.1,15c0,2.3-3.1,4.2-6.9,4.2
		s-9.2,3.5-12.3,7.7c-3.1,4.2-6.9,7.7-8.9,7.7s-8.5,5.4-14.2,11.5c-5.8,6.5-12.7,11.5-15.4,11.5c-5.4,0-15.4,9.6-15.4,15
		c0,2.3-1.9,4.2-3.8,4.2c-2.3,0-13.5,9.6-25,21.2c-26.2,26.2-27.3,35-5.8,55.8c8.5,8.1,15.4,16.6,15.4,18.9s3.8,4.2,8.9,4.2
		c5,0.4,14.2,6.5,21.9,15.4c7.3,8.1,13.9,15,14.6,15.4C921.6,9233.3,924.7,9231,927.8,9227.9z M2151.6,9212.1
		c7.3-7.3,13.5-15,13.5-17.3c0-1.9,1.9-3.8,3.8-3.8c4.2,0,46.2-40.4,46.2-44.3s-42-44.3-46.2-44.3c-1.9,0-3.8-2.7-3.8-5.8
		s-2.7-5.8-6.2-5.8c-3.1,0-12.7-6.9-20.8-15.4c-8.1-8.5-17.7-15.4-21.2-15.4c-6.9,0-25-16.6-25-23.1c0-1.9-3.5-3.8-7.7-3.8
		c-4.2,0-7.7-1.5-7.7-3.8c0-1.9-2.7-3.8-5.8-3.8c-3.1,0-5.8-1.5-5.8-3.8c0-1.9-3.1-3.8-6.9-3.8s-9.2-3.5-12.3-7.7s-8.5-7.7-12.3-7.7
		s-6.9-1.5-6.9-3.8c0-1.9-4.2-3.8-9.6-3.8c-6.2,0-9.6-2.3-9.6-5.8c0-3.1-3.5-5.8-7.7-5.8s-7.7-1.5-7.7-3.8c0-1.9-3.5-3.8-7.7-3.8
		s-7.7-1.5-7.7-3.8c0-1.9-4.2-3.8-9.6-3.8s-9.6-1.5-9.6-3.8c0-1.9-3.5-3.8-7.7-3.8c-4.2,0-7.7-1.5-7.7-3.8c0-1.9-3.5-3.8-7.7-3.8
		c-4.2,0-7.7-1.5-7.7-3.8c0-1.9-6.2-3.8-13.5-3.8c-9.2,0-13.5-1.9-13.5-5.8c0-3.1-3.5-5.8-7.7-5.8c-4.2,0-7.7-1.5-7.7-3.8
		c0-1.9-6.2-3.8-13.5-3.8c-7.3,0-13.5-1.5-13.5-3.8c0-1.9-6.9-3.8-15.4-3.8s-15.4-1.5-15.4-3.8c0-1.9-7.7-3.8-17.3-3.8
		s-17.3-1.5-17.3-3.8c0-5.8-11.2-4.6-17.7,1.5c-3.1,3.1-5.4,9.2-5.4,13.5c0,4.6-2.3,7.7-4.6,6.9c-3.1-0.4-5.4,4.2-6.2,11.9
		c-0.8,6.5-2.7,12.3-5,12.3c-1.9,0-3.5,5.4-3.5,11.5c0,6.5-1.5,11.5-3.8,11.5c-1.9,0-3.8,6.2-3.8,13.5s-1.5,13.5-3.8,13.5
		c-1.9,0-3.8,1.9-3.8,3.8c0,2.3,5.4,3.8,11.5,3.8c6.5,0,11.5,1.9,11.5,3.8c0,2.3,9.6,3.8,21.2,3.8s21.2,1.9,21.2,3.8
		c0,2.3,6.2,3.8,13.5,3.8c7.3,0,13.5,1.9,13.5,3.8c0,2.3,5.4,3.8,11.5,3.8c7.7,0,11.5,1.9,11.5,5.8s4.2,5.8,13.5,5.8
		c7.3,0,13.5,1.9,13.5,3.8c0,2.3,3.5,3.8,7.7,3.8c4.2,0,7.7,1.9,7.7,3.8c0,2.3,3.5,3.8,7.7,3.8c4.2,0,7.7,1.9,7.7,3.8
		c0,2.3,4.2,3.8,9.6,3.8c5.4,0,9.6,1.9,9.6,3.8c0,2.3,3.5,3.8,7.7,3.8c4.2,0,7.7,1.9,7.7,3.8c0,2.3,3.5,3.8,7.7,3.8
		c4.2,0,7.7,1.9,7.7,3.8c0,2.3,4.2,3.8,9.6,3.8s9.6,1.9,9.6,4.2c0,5.8,10,15,16.2,15c3.1,0,7.7,3.5,10.8,7.7s9.2,7.7,13.5,7.7
		s10.4,3.5,13.5,7.7s8.5,7.7,12.3,7.7s6.9,1.9,6.9,3.8c0,5,17.3,23.1,21.9,23.1c1.9,0,5.8,3.5,8.9,7.7c3.1,4.2,7.7,7.7,10.8,7.7
		c5.4,0,16.2,8.9,16.2,13.5c0,3.5,10.4,13.5,14.2,13.5c1.9,0,5.8,3.5,8.9,7.7c3.1,4.2,6.2,7.7,6.9,7.7
		C2137.7,9225.6,2144.3,9219.4,2151.6,9212.1z"/>
	<path class="st0" d="M3524,10753.9c0-1.9-7.7-3.8-17.3-3.8s-17.3-1.5-17.3-3.8c0-1.9-5-3.8-11.5-3.8c-7.7,0-11.5-1.9-11.5-5.8
		c0-3.5-3.5-5.8-9.6-5.8c-5.4,0-9.6-1.5-9.6-3.8c0-1.9-5-3.8-11.5-3.8c-6.2,0-11.5-1.5-11.5-3.8c0-1.9-6.2-3.8-13.5-3.8
		s-13.5-1.5-13.5-3.8c0-1.9-3.5-3.8-7.7-3.8s-7.7-1.5-7.7-3.8c0-1.9-3.5-3.8-7.7-3.8s-7.7-1.5-7.7-3.8c0-1.9-4.2-3.8-9.6-3.8
		c-6.2,0-9.6-2.3-9.6-5.8c0-3.1-3.5-5.8-7.7-5.8s-7.7-1.5-7.7-3.8c0-1.9-3.5-3.8-7.7-3.8s-7.7-1.5-7.7-3.8c0-1.9-3.8-3.8-8.9-3.8
		c-4.6,0-11.2-3.5-14.2-7.7c-3.1-4.2-8.5-7.7-12.3-7.7s-6.9-1.5-6.9-3.8c0-1.9-2.7-3.8-6.2-3.8c-6.9,0-16.9-8.9-16.9-15
		c0-2.3-3.5-4.2-8.1-4.2s-13.1-5-18.9-11.5c-5.8-6.2-13.5-11.5-16.9-11.5c-3.5,0-6.2-1.5-6.2-3.8c0-1.9-1.9-3.8-4.2-3.8
		c-4.2,0-15-9.6-15-13.5c0-5-26.9-28.9-32.7-28.9c-8.1,0-25-17.3-25-25.4c0-3.5-5-11.2-11.5-16.9c-15.4-14.6-15-26.2,1.2-23.5
		c1.5,0,2.7-1.5,2.7-3.5c0-4.2,25-30.8,28.9-30.8c3.1,0,21.2-18.1,21.2-21.2c0-1.5,2.7-5,5.8-8.1c5-5.4,6.5-5.4,11.5,0
		c3.1,3.1,5.8,7.3,5.8,9.6c0,2.3,1.9,4.2,3.8,4.2c2.3,0,13.5,9.6,25,21.2s21.2,22.7,21.2,25c0,1.9,1.9,3.8,4.2,3.8
		c2.3,0,9.2,5.4,15,11.5c5.8,6.5,12.7,11.5,15,11.5c5.8,0,23.5,17.3,23.5,23.1c0,1.9,3.8,3.8,8.9,3.8c4.6,0,11.2,3.5,14.2,7.7
		c3.1,4.2,8.5,7.7,12.3,7.7s6.9,1.9,6.9,3.8c0,2.3,3.8,3.8,8.9,3.8c4.6,0,11.2,3.5,14.2,7.7c3.1,4.2,8.5,7.7,12.3,7.7
		s6.9,2.7,6.9,5.8c0,3.1,3.5,5.8,7.7,5.8s7.7,1.9,7.7,3.8c0,2.3,4.2,3.8,9.6,3.8s9.6,1.9,9.6,3.8c0,2.3,5.4,3.8,11.5,3.8
		c6.5,0,11.5,1.9,11.5,3.8c0,2.3,4.2,3.8,9.6,3.8s9.6,1.9,9.6,3.8c0,2.3,5.4,3.8,11.5,3.8c6.5,0,11.5,1.9,11.5,3.8
		c0,2.3,6.2,3.8,13.5,3.8c9.2,0,13.5,1.9,13.5,5.8s3.8,5.8,11.5,5.8c6.5,0,11.5,1.9,11.5,3.8c0,2.3,5.4,3.8,11.9,3.8
		c12.7,0,28.5,11.5,19.6,14.6c-2.7,0.8-4.6,8.5-4.6,18.5c0,12.3-1.5,16.9-5.8,16.9c-3.8,0-5.8,3.8-5.8,11.5c0,6.5-1.5,11.5-3.8,11.5
		c-1.9,0-3.8,6.9-3.8,15.8c0,8.5-2.3,18.1-5.4,21.2C3527.4,10758.5,3524,10759.3,3524,10753.9z"/>
	<path class="st0" d="M4032.1,10742.7c0-4.2-1.5-8.9-3.8-10c-1.9-1.2-3.8-5.8-3.8-10c0-3.8-2.7-7.3-5.8-7.3c-3.8,0-5.8-3.8-5.8-11.5
		c0-6.2-1.5-11.5-3.8-11.5c-1.9,0-3.8-6.2-3.8-13.5s-1.5-13.5-3.8-13.5c-1.9,0-3.8-5-3.8-11.5c0-8.9,1.5-11.5,7.7-11.5
		c4.2,0,7.7-1.5,7.7-3.8c0-1.9,9.6-3.8,21.2-3.8c16.2,0,21.2-1.2,21.2-5.8c0-4.2,4.6-5.8,17.3-5.8c9.6,0,17.3-1.5,17.3-3.8
		c0-1.9,5.4-3.8,11.5-3.8c6.5,0,11.5-1.5,11.5-3.8c0-1.9,4.2-3.8,9.6-3.8c5.4,0,9.6-1.2,9.6-3.1c0-3.1,27.3-12.3,36.6-12.3
		c3.1,0,5.8-1.5,5.8-3.8c0-1.9,3.5-3.8,7.7-3.8c4.2,0,7.7-2.7,7.7-5.8c0-3.1,3.1-5.8,6.9-5.8s9.2-3.5,12.3-7.7s9.6-7.7,14.2-7.7
		c5,0,8.9-1.5,8.9-3.8c0-1.9,3.1-3.8,6.9-3.8s9.2-3.5,12.3-7.7s8.5-7.7,12.3-7.7s6.9-2.7,6.9-5.8c0-3.1,2.7-5.8,5.8-5.8
		s5.8-1.5,5.8-3.8c0-1.9,2.7-3.8,6.2-3.8c3.1,0,12.7-6.9,20.8-15.4c8.1-8.5,18.5-15.4,22.7-15.4c4.6,0,8.1-1.9,8.1-3.8
		c0-4.2,32.7-38.5,36.6-38.5s13.5-10.8,13.5-15c0-2.3,1.9-4.2,3.8-4.2c2.3,0,3.8,1.9,3.8,3.8c0,4.2,25,30.8,28.9,30.8
		c3.1,0,21.2,18.5,21.2,21.6c0,1.2,5.4,7.3,11.5,13.1c6.5,5.8,11.5,13.1,11.5,15.4c0,6.5-15.4,19.6-19.6,16.9
		c-1.9-1.2-3.5-0.4-3.5,1.9c0,1.9,2.3,4.6,5,5.4c2.3,1.2,1.2,2.3-3.1,2.3c-4.2,0.4-10.4,3.8-13.5,8.1s-6.9,7.7-8.9,7.7
		c-4.6,0-29.6,26.2-29.6,30.8c0,2.3-1.5,3.5-3.5,1.9c-1.9-1.2-6.2,0.8-9.2,3.8c-3.5,3.1-7.3,5.8-9.2,5.8s-5.8,3.5-8.9,7.7
		s-8.1,7.7-11.5,7.7c-3.5,0-8.5,3.5-11.5,7.7s-9.6,7.7-14.2,7.7c-5,0-8.9,1.9-8.9,4.2c0,6.2-10,15-16.9,15c-3.5,0-6.2,1.9-6.2,3.8
		c0,2.3-3.5,3.8-7.7,3.8c-4.2,0-7.7,1.9-7.7,3.8c0,2.3-2.7,3.8-5.8,3.8s-5.8,1.9-5.8,3.8c0,2.3-3.5,3.8-7.7,3.8
		c-4.2,0-7.7,1.9-7.7,3.8c0,2.3-3.5,3.8-7.7,3.8c-4.2,0-7.7,1.9-7.7,3.8c0,2.3-3.5,3.8-7.7,3.8c-4.2,0-7.7,2.7-7.7,5.8
		c0,3.5-3.5,5.8-9.6,5.8c-5.4,0-9.6,1.9-9.6,3.8c0,2.3-3.5,3.8-7.7,3.8c-4.2,0-7.7,1.9-7.7,3.8c0,2.3-6.2,3.8-13.5,3.8
		c-7.3,0-13.5,1.9-13.5,3.8c0,2.3-5,3.8-11.5,3.8c-6.2,0-11.5,1.9-11.5,3.8c0,2.3-6.2,3.8-13.5,3.8c-7.3,0-13.5,1.9-13.5,3.8
		c0,2.3-5,3.8-11.5,3.8c-7.7,0-11.5,1.9-11.5,5.8c0,4.2-4.6,5.8-17.3,5.8c-9.6,0-17.3,1.9-17.3,3.8c0,2.3-5,3.8-11.5,3.8
		C4034.8,10750,4032.1,10748.1,4032.1,10742.7z"/>
	<path class="st0" d="M3739.6,10503.7c0-2.3-13.5-3.8-32.7-3.8s-32.7-1.5-32.7-3.8c0-1.9-9.6-3.8-21.2-3.8s-21.2-1.5-21.2-3.8
		c0-1.9-7.7-3.8-17.3-3.8c-12.7,0-17.3-1.5-17.3-5.8c0-3.8-3.8-5.8-11.5-5.8c-6.2,0-11.5-1.5-11.5-3.8c0-1.9-6.2-3.8-13.5-3.8
		c-7.3,0-13.5-1.5-13.5-3.8c0-1.9-3.5-3.8-7.7-3.8c-4.2,0-7.7-1.5-7.7-3.8c0-1.9-3.5-3.8-7.7-3.8c-4.2,0-7.7-1.5-7.7-3.8
		c0-1.9-6.2-3.8-13.9-3.8c-7.3,0-12.7-1.5-11.5-3.5s-1.5-4.2-5.8-5.4c-4.6-1.2-6.9-3.8-5.4-6.2c1.2-2.7-0.8-4.2-5.4-4.2
		c-4.6,0-8.1-1.5-8.1-3.8c0-1.9-4.2-3.8-9.6-3.8s-9.6-1.5-9.6-3.8c0-1.9-3.1-3.8-6.9-3.8s-9.2-3.5-12.3-7.7
		c-3.1-4.2-8.5-7.7-12.3-7.7s-6.9-1.5-6.9-3.8c0-1.9-2.7-3.8-5.8-3.8c-3.1,0-5.8-2.7-5.8-5.8c0-3.1-2.7-5.8-6.2-5.8
		c-3.1,0-12.7-6.9-20.8-15.4s-17.7-15.4-21.2-15.4c-5.8,0-25-16.2-25-21.2c0-3.1-18.1-21.2-21.2-21.2c-5,0-28.9-26.9-28.9-32.7
		c0-6.5-24.3-32.7-30.8-32.7c-1.9,0-3.8-3.8-3.8-8.9c0-4.6-3.5-11.2-7.7-14.2s-7.7-8.1-7.7-11.5s-3.5-8.5-7.7-11.5
		s-7.7-9.6-7.7-14.2c0-5-1.5-8.9-3.8-8.9c-1.9,0-3.8-3.5-3.8-7.7s-2.7-7.7-5.8-7.7c-3.1,0-5.8-3.5-5.8-7.7s-1.5-7.7-3.8-7.7
		c-1.9,0-3.8-4.2-3.8-9.6s-1.5-9.6-3.8-9.6c-1.9,0-3.8-3.5-3.8-7.7s-1.5-7.7-3.8-7.7c-1.9,0-3.8-3.5-3.8-7.7s-1.5-7.7-3.8-7.7
		c-1.9,0-3.8-6.2-3.8-13.5s-1.5-13.5-3.8-13.5c-1.9,0-3.8-5-3.8-11.5c0-7.7-1.9-11.5-5.8-11.5s-5.8-4.2-5.8-13.5
		c0-7.3-1.5-13.5-3.8-13.5c-1.9,0-3.8-6.9-3.8-15.4s-1.5-15.4-3.8-15.4c-1.9,0-3.8-9.6-3.8-21.2s-1.5-21.2-3.8-21.2
		s-3.8-10.8-3.8-25s-1.5-25-3.8-25s-3.8-16.6-3.8-42.3s-1.5-42.3-3.8-42.3s-3.8-18.1-3.8-46.2c0-38.5-0.8-46.2-5.8-46.2
		c-4.6,0-5.8-6.2-5.8-32.7c0-19.2-1.5-32.7-3.8-32.7c-1.9,0-3.8-9.6-3.8-21.2s-1.5-21.2-3.8-21.2c-1.9,0-3.8-8.5-3.8-19.2
		c0-10.4-1.5-19.2-3.8-19.2c-1.9,0-3.8-7.7-3.8-17.3s-1.5-17.3-3.8-17.3c-1.9,0-3.8-7.7-3.8-17.3s-1.5-17.3-3.8-17.3
		c-1.9,0-3.8-6.9-3.8-15.4c0-11.2-1.5-15.4-5.8-15.4c-3.8,0-5.8-4.2-5.8-13.5c0-7.3-1.5-13.5-3.8-13.5c-1.9,0-3.8-5-3.8-11.5
		c0-6.2-1.5-11.5-3.8-11.5c-1.9,0-3.8-6.2-3.8-13.5s-1.5-13.5-3.8-13.5c-1.9,0-3.8-5-3.8-11.5c0-6.2-1.5-11.5-3.8-11.5
		c-1.9,0-3.8-4.2-3.8-9.6s-1.5-9.6-3.8-9.6c-1.9,0-3.8-5-3.8-11.5c0-7.7-1.9-11.5-5.8-11.5c-3.1,0-5.8-3.5-5.8-7.7s-1.5-7.7-3.8-7.7
		c-1.9,0-3.8-4.2-3.8-9.6s-1.5-9.6-3.8-9.6c-1.9,0-3.8-3.5-3.8-7.7s-1.5-7.7-3.8-7.7c-1.9,0-3.8-3.5-3.8-7.7s-1.5-7.7-3.8-7.7
		c-1.9,0-3.8-4.2-3.8-9.6s-1.5-9.6-3.8-9.6c-1.9,0-3.8-3.5-3.8-7.7s-1.5-7.7-3.8-7.7c-1.9,0-3.8-3.5-3.8-7.7s-2.7-7.7-5.8-7.7
		c-3.5,0-5.8-3.5-5.8-9.6c0-5.4-1.5-9.6-3.8-9.6c-1.9,0-3.8-3.5-3.8-7.7s-1.5-7.7-3.8-7.7c-1.9,0-3.8-3.5-3.8-7.7s-1.5-7.7-3.8-7.7
		c-1.9,0-3.8-2.7-3.8-5.8s-1.5-5.8-3.8-5.8c-1.9,0-3.8-3.5-3.8-7.7s-1.5-7.7-3.8-7.7c-1.9,0-3.8-3.5-3.8-7.7s-1.9-7.7-4.2-7.7
		c-6.5,0-15-10.4-15-18.1c0-3.8-3.5-9.6-7.7-12.7s-7.7-8.1-7.7-11.5s-3.5-8.5-7.7-11.5s-7.7-9.6-7.7-14.2c0-5-1.9-8.9-3.8-8.9
		c-5.8,0-23.1-18.1-23.1-23.9c0-3.1-3.5-7.7-7.7-10.8s-7.7-6.9-7.7-8.9c0-4.6-10.4-14.2-15-14.2c-2.3,0-4.2-2.7-4.2-6.2
		s-5-11.2-11.5-16.9c-6.2-5.8-11.5-11.9-11.5-13.1c0-3.1-18.1-21.6-21.2-21.6c-3.8,0-28.9-26.6-28.9-30.8c0-1.9-1.5-3.8-3.8-3.8
		c-1.9,0-3.8-2.7-3.8-6.2c0-7.7-10.4-18.1-15-15.4c-3.5,2.3-27.3-17.7-27.3-22.3c0-3.1-25.8-29.3-28.9-29.3
		c-3.8,0-21.2-18.9-21.2-23.1c0-1.9-3.1-3.8-6.9-3.8s-9.2-3.5-12.3-7.7c-3.1-4.2-7.3-7.7-9.6-7.7s-6.5-3.5-9.6-7.7
		c-3.1-4.2-7.7-7.7-10.8-7.7c-5.4,0-16.2-8.9-16.2-13.5c0-5-11.2-13.5-18.1-13.5c-3.8,0-9.6-3.5-12.7-7.7c-3.1-4.2-8.1-7.7-11.5-7.7
		s-8.5-3.5-11.5-7.7c-3.1-4.2-8.9-7.7-12.7-7.7c-7.7,0-18.1-8.5-18.1-15c0-2.3-3.5-4.2-7.7-4.2s-7.7-1.5-7.7-3.8
		c0-1.9-3.8-3.8-8.9-3.8c-4.6,0-11.2-3.5-14.2-7.7c-3.1-4.2-8.5-7.7-12.3-7.7s-6.9-1.5-6.9-3.8c0-1.9-3.5-3.8-7.7-3.8
		c-4.2,0-7.7-1.5-7.7-3.8c0-1.9-4.2-3.8-9.6-3.8c-6.2,0-9.6-2.3-9.6-5.8c0-3.1-3.5-5.8-7.7-5.8c-4.2,0-7.7-1.5-7.7-3.8
		c0-1.9-3.5-3.8-7.7-3.8c-4.2,0-7.7-1.5-7.7-3.8c0-1.9-4.2-3.8-9.6-3.8c-5.4,0-9.6-1.5-9.6-3.8c0-1.9-3.5-3.8-7.7-3.8
		c-4.2,0-7.7-1.5-7.7-3.8c0-1.9-3.5-3.8-7.7-3.8c-4.2,0-7.7-1.5-7.7-3.8c0-1.9-4.2-3.8-9.6-3.8c-6.2,0-9.6-2.3-9.6-5.8
		c0-3.8-3.8-5.8-11.5-5.8c-6.2,0-11.5-1.5-11.5-3.8c0-1.9-3.5-3.8-7.7-3.8c-4.2,0-7.7-1.5-7.7-3.8c0-1.9-6.2-3.8-13.5-3.8
		c-7.3,0-13.5-1.5-13.5-3.8c0-1.9-5-3.8-11.5-3.8c-6.2,0-11.5-1.5-11.5-3.8c0-1.9-6.2-3.8-13.5-3.8c-7.3,0-13.5-1.5-13.5-3.8
		c0-1.9-5-3.8-11.5-3.8c-7.7,0-11.5-1.9-11.5-5.8c0-4.2-4.6-5.8-17.3-5.8c-9.6,0-17.3-1.5-17.3-3.8c0-1.9-7.7-3.8-17.3-3.8
		s-17.3-1.5-17.3-3.8c0-1.9-6.9-3.8-15.4-3.8s-15.4-1.5-15.4-3.8c0-1.9-9.6-3.8-21.2-3.8s-21.2-1.5-21.2-3.8s-12.3-3.8-28.9-3.8
		s-28.9-1.5-28.9-3.8s-15.4-3.8-38.5-3.8c-31.6,0-38.5-1.2-38.5-5.8c0-5-14.6-5.8-107.8-5.8s-107.8,0.8-107.8,5.8
		c0,4.6-6.5,5.8-36.6,5.8c-21.9,0-36.6,1.5-36.6,3.8s-12.7,3.8-30.8,3.8c-18.1,0-30.8,1.5-30.8,3.8s-8.5,3.8-19.2,3.8
		c-10.4,0-19.2,1.9-19.2,3.8c0,2.3-7.7,3.8-17.3,3.8s-17.3,1.9-17.3,3.8c0,2.3-7.7,3.8-17.3,3.8s-17.3,1.9-17.3,3.8
		c0,2.3-6.9,3.8-15.4,3.8c-11.2,0-15.4,1.5-15.4,5.8c0,3.8-4.2,5.8-13.5,5.8c-7.3,0-13.5,1.9-13.5,3.8c0,2.3-5,3.8-11.5,3.8
		c-6.2,0-11.5,1.9-11.5,3.8c0,2.3-6.2,3.8-13.5,3.8c-7.3,0-13.5,1.9-13.5,3.8c0,2.3-5,3.8-11.5,3.8c-6.2,0-11.5,1.9-11.5,3.8
		c0,2.3-4.2,3.8-9.6,3.8c-5.4,0-9.6,1.9-9.6,3.8c0,2.3-5,3.8-11.5,3.8c-7.7,0-11.5,1.9-11.5,5.8c0,3.1-3.5,5.8-7.7,5.8
		s-7.7,1.9-7.7,3.8c0,2.3-4.2,3.8-9.6,3.8s-9.6,1.9-9.6,3.8c0,2.3-3.5,3.8-7.7,3.8s-7.7,1.9-7.7,3.8c0,2.3-6.2,3.8-13.5,3.8
		s-13.5,1.9-13.5,3.8c0,2.3-3.5,3.8-7.7,3.8s-7.7,1.9-7.7,3.8c0,2.3-3.5,3.8-8.1,3.8c-4.2,0-6.9,1.5-5.8,3.1
		c2.7,4.6-11.9,16.2-20.8,16.2c-4.2,0-7.7,1.9-7.7,3.8c0,2.3-3.5,3.8-7.7,3.8s-7.7,1.9-7.7,3.8c0,2.3-3.5,3.8-7.7,3.8
		s-7.7,1.9-7.7,3.8c0,2.3-2.7,3.8-5.8,3.8s-5.8,1.9-5.8,3.8c0,2.3-3.5,3.8-7.7,3.8c-4.2,0-7.7,2.7-7.7,5.8c0,3.1-3.1,5.8-6.9,5.8
		s-9.2,3.5-12.3,7.7c-3.1,4.2-9.2,7.7-13.5,7.7s-10.4,3.5-13.5,7.7c-3.1,4.2-7.7,7.7-10.8,7.7c-5.8,0-23.9,17.3-23.9,23.1
		c0,1.9-3.5,3.8-8.1,3.8c-4.6,0-13.1,5.4-18.9,11.5s-13.5,11.5-16.9,11.5c-3.5,0-6.2,1.9-6.2,3.8c0,2.3-1.9,3.8-4.2,3.8
		c-4.2,0-15,9.6-15,13.5c0,4.6-19.2,21.2-25,21.2c-3.1,0-5.8,1.9-5.8,3.8c0,2.3-1.9,3.8-3.8,3.8c-4.2,0-23.1,17.3-23.1,21.2
		c0,2.7-26.2,28.9-28.9,28.9c-3.1,0-21.2,18.1-21.2,21.2c0,2.7-26.2,28.9-28.9,28.9c-5,0-21.2,19.2-21.2,25c0,6.5-32,40.4-38.5,40.4
		c-1.9,0-3.8,3.5-3.8,8.1c0,4.6-5,13.1-11.5,18.9c-6.2,5.8-11.5,13.5-11.5,16.9s-1.5,6.2-3.8,6.2c-1.9,0-3.8,1.9-3.8,4.2
		c0,5.4-9.6,15-15,15c-2.3,0-4.2,3.1-4.2,6.9s-3.5,9.2-7.7,12.3s-7.7,8.5-7.7,12.3s-1.5,6.9-3.8,6.9c-1.9,0-3.8,2.7-3.8,5.8
		s-1.5,5.8-3.8,5.8c-1.9,0-3.8,2.7-3.8,6.2c0,6.9-8.9,16.9-15,16.9c-2.3,0-4.2,3.5-4.2,7.7s-1.5,7.7-3.8,7.7c-1.9,0-3.8,4.2-3.8,9.6
		s-1.5,9.6-3.8,9.6c-1.9,0-3.8,3.1-3.8,6.9s-3.5,9.2-7.7,12.3s-7.7,9.6-7.7,14.2c0,5-1.5,8.9-3.8,8.9c-1.9,0-3.8,3.5-3.8,7.7
		s-2.7,7.7-5.8,7.7c-3.1,0-5.8,3.5-5.8,7.7s-1.5,7.7-3.8,7.7c-1.9,0-3.8,4.2-3.8,9.6s-1.5,9.6-3.8,9.6c-1.9,0-3.8,3.5-3.8,7.7
		s-1.5,7.7-3.8,7.7c-1.9,0-3.8,5.4-3.8,11.5c0,6.5-1.5,11.5-3.8,11.5c-1.9,0-3.8,4.2-3.8,9.6s-1.5,9.6-3.8,9.6
		c-1.9,0-3.8,3.5-3.8,7.7s-2.7,7.7-5.8,7.7s-5.8,3.5-5.8,7.7c0,5-2.7,7.7-7.7,7.7c-6.5,0-7.7-2.7-7.7-15.4c0-8.5,1.9-15.4,3.8-15.4
		c2.3,0,3.8-6.2,3.8-13.5s1.9-13.5,3.8-13.5c2.3,0,3.8-6.9,3.8-15.4c0-11.2,1.5-15.4,5.8-15.4c3.8,0,5.8-4.2,5.8-13.5
		c0-7.3,1.9-13.5,3.8-13.5c2.3,0,3.8-5,3.8-11.5c0-6.2,1.9-11.5,3.8-11.5c2.3,0,3.8-6.2,3.8-13.5s1.9-13.5,3.8-13.5
		c2.3,0,3.8-5,3.8-11.5c0-6.2,1.9-11.5,3.8-11.5c2.3,0,3.8-6.2,3.8-13.5s1.9-13.5,3.8-13.5c2.3,0,3.8-5,3.8-11.5
		c0-7.7,1.9-11.5,5.8-11.5c3.5,0,5.8-3.5,5.8-9.6c0-5.4,1.9-9.6,3.8-9.6c2.3,0,3.8-5,3.8-11.5c0-6.2,1.9-11.5,3.8-11.5
		c2.3,0,3.8-3.5,3.8-7.7s1.9-7.7,3.8-7.7c2.3,0,3.8-4.2,3.8-9.6s1.9-9.6,3.8-9.6c2.3,0,3.8-5,3.8-11.5c0-6.2,1.9-11.5,3.8-11.5
		c2.3,0,3.8-4.2,3.8-9.6c0-6.2,2.3-9.6,5.8-9.6c3.1,0,5.8-3.5,5.8-7.7s1.9-7.7,3.8-7.7c2.3,0,3.8-3.5,3.8-7.7s1.9-7.7,3.8-7.7
		c2.3,0,3.8-4.2,3.8-9.6s1.9-9.6,3.8-9.6c2.3,0,3.8-3.5,3.8-7.7s1.9-7.7,3.8-7.7c2.3,0,3.8-3.5,3.8-7.7s1.9-7.7,3.8-7.7
		c2.3,0,3.8-4.2,3.8-9.6c0-6.2,2.3-9.6,5.8-9.6c3.1,0,5.8-3.5,5.8-7.7s1.9-7.7,3.8-7.7c2.3,0,3.8-3.5,3.8-7.7s1.9-7.7,3.8-7.7
		c2.3,0,3.8-3.8,3.8-8.9c0-4.6,3.5-11.2,7.7-14.2c4.2-3.1,7.7-8.5,7.7-12.3s1.9-6.9,3.8-6.9c2.3,0,3.8-3.5,3.8-7.7s2.7-7.7,5.8-7.7
		s5.8-2.7,5.8-5.8c0-3.1,1.9-5.8,3.8-5.8c2.3,0,3.8-3.5,3.8-7.7s1.9-7.7,3.8-7.7c2.3,0,3.8-3.1,3.8-6.9s3.5-9.2,7.7-12.3
		c4.2-3.1,7.7-9.2,7.7-13.5s3.5-10.4,7.7-13.5c4.2-3.1,7.7-8.5,7.7-12.3s1.9-6.9,4.2-6.9c6.5,0,15-10.4,15-18.1
		c0-3.8,3.5-9.6,7.7-12.7c4.2-3.1,7.7-8.1,7.7-11.5s3.5-8.5,7.7-11.5c4.2-3.1,7.7-9.6,7.7-14.2c0-5,1.9-8.9,3.8-8.9
		c5.8,0,23.1-18.1,23.1-23.9c0-3.1,3.5-7.7,7.7-10.8c4.2-3.1,7.7-6.9,7.7-8.9c0-4.6,10.4-14.2,15-14.2c2.3,0,4.2-2.7,4.2-6.2
		s5.4-11.2,11.5-16.9c6.5-5.8,11.5-12.3,11.5-14.2s3.5-5.8,7.7-8.9c4.2-3.1,7.7-8.5,7.7-12.3s1.9-6.9,3.8-6.9
		c4.2,0,23.1-17.3,23.1-21.2c0-3.1,26.2-28.9,28.9-28.9c4.6,0,13.5-11.2,13.5-17.3c0-5.4,31.6-40.4,36.6-40.4
		c3.1,0,21.2-18.1,21.2-21.2c0-5,19.2-21.2,25-21.2c3.1,0,5.8-1.5,5.8-3.8c0-1.9,1.9-3.8,3.8-3.8c4.2,0,23.1-17.3,23.1-21.2
		c0-3.5,26.2-28.9,29.6-28.9c1.9,0,5.8-3.5,8.9-7.7s8.5-7.7,12.3-7.7s6.9-1.9,6.9-3.8c0-5.4,17.7-23.1,23.1-23.1
		c1.9,0,3.8-1.5,3.8-3.8c0-1.9,2.7-3.8,5.8-3.8c5.8,0,25-16.6,25-21.2c0-5,11.2-13.5,17.3-13.5c3.5,0,11.5-5,17.3-11.5
		c5.8-6.2,13.5-11.5,16.9-11.5c3.5,0,6.2-1.5,6.2-3.8c0-1.9,2.7-3.8,5.8-3.8s5.8-2.7,5.8-5.8c0-3.1,2.7-5.8,6.2-5.8
		c3.5,0,11.2-5.4,16.9-11.5c5.8-6.5,13.9-11.5,18.1-11.5c3.8,0,9.6-3.5,12.7-7.7c3.1-4.2,8.5-7.7,12.3-7.7s6.9-2.7,6.9-5.8
		c0-3.1,3.1-5.8,6.9-5.8s9.2-3.5,12.3-7.7c3.1-4.2,9.2-7.7,13.5-7.7c4.2,0,10.4-3.5,13.5-7.7c3.1-4.2,8.5-7.7,12.3-7.7
		s6.9-1.5,6.9-3.8c0-1.9,3.5-3.8,8.1-3.8c4.2,0,10.4-2.7,13.9-5.8c3.1-3.1,7.7-4.6,10-3.1c2.3,1.5,3.1,0,1.5-3.8
		c-1.5-4.2-0.4-6.5,3.1-6.5c3.1,0,5.8-1.5,5.8-3.8c0-1.9,3.5-3.8,7.7-3.8c4.2,0,7.7-1.5,7.7-3.8c0-1.9,4.2-3.8,9.6-3.8
		c5.4,0,9.6-1.5,9.6-3.8c0-1.9,3.5-3.8,7.7-3.8c4.2,0,7.7-1.5,7.7-3.8c0-1.9,3.5-3.8,7.7-3.8c4.2,0,7.7-1.5,7.7-3.8
		c0-1.9,4.2-3.8,9.6-3.8c6.2,0,9.6-2.3,9.6-5.8c0-3.1,3.5-5.8,7.7-5.8c4.2,0,7.7-1.5,7.7-3.8c0-1.9,3.5-3.8,7.7-3.8
		c4.2,0,7.7-1.5,7.7-3.8c0-1.9,4.2-3.8,9.6-3.8c5.4,0,9.6-1.5,9.6-3.8c0-1.9,3.5-3.8,7.7-3.8c4.2,0,7.7-1.5,7.7-3.8
		c0-1.9,3.5-3.8,7.7-3.8c4.2,0,7.7-1.5,7.7-3.8c0-1.9,4.2-3.8,9.6-3.8c6.2,0,9.6-2.3,9.6-5.8c0-3.8,3.8-5.8,11.5-5.8
		c6.5,0,11.5-1.5,11.5-3.8c0-1.9,4.2-3.8,9.6-3.8c5.4,0,9.6-1.5,9.6-3.8c0-1.9,5.4-3.8,11.5-3.8c6.5,0,11.5-1.5,11.5-3.8
		c0-1.9,3.5-3.8,7.7-3.8c4.2,0,7.7-1.5,7.7-3.8c0-1.9,6.2-3.8,13.5-3.8c7.3,0,13.5-1.5,13.5-3.8c0-1.9,4.2-3.8,9.6-3.8
		c5.4,0,10.8-2.7,11.9-5.8c1.5-3.1,6.5-5.8,11.5-5.8s9.2-1.5,9.2-3.8c0-1.9,5.4-3.8,11.5-3.8c6.5,0,11.5-1.5,11.5-3.8
		c0-1.9,6.2-3.8,13.5-3.8c7.3,0,13.5-1.5,13.5-3.8c0-1.9,6.9-3.8,15.4-3.8s15.4-1.5,15.4-3.8c0-1.9,6.2-3.8,13.5-3.8
		c7.3,0,13.5-1.5,13.5-3.8c0-1.9,6.9-3.8,15.4-3.8c11.2,0,15.4-1.5,15.4-5.8c0-4.2,4.6-5.8,17.3-5.8c9.6,0,17.3-1.5,17.3-3.8
		c0-1.9,7.7-3.8,17.3-3.8s17.3-1.5,17.3-3.8c0-1.9,6.9-3.8,15.4-3.8s15.4-1.5,15.4-3.8c0-1.9,9.6-3.8,21.2-3.8s21.2-1.5,21.2-3.8
		c0-2.3,10.8-3.8,25-3.8c14.2,0,25-1.5,25-3.8c0-2.3,10.8-3.8,25-3.8c19.6,0,25-1.2,25-5.8c0-4.6,6.9-5.8,38.5-5.8
		c23.1,0,38.5-1.5,38.5-3.8c0-2.3,20.4-3.8,53.9-3.8c33.5,0,53.9-1.5,53.9-3.8c0-2.3,33.9-3.8,94.3-3.8c60.4,0,94.3,1.5,94.3,3.8
		c0,2.3,22.3,3.8,59.7,3.8c37.3,0,59.7,1.5,59.7,3.8c0,2.3,13.5,3.8,32.7,3.8c26.6,0,32.7,1.2,32.7,5.8c0,4.6,5.8,5.8,28.9,5.8
		c16.6,0,28.9,1.5,28.9,3.8c0,2.3,9.6,3.8,21.2,3.8s21.2,1.9,21.2,3.8c0,2.3,9.6,3.8,21.2,3.8s21.2,1.9,21.2,3.8
		c0,2.3,9.6,3.8,21.2,3.8s21.2,1.9,21.2,3.8c0,2.3,6.9,3.8,15.4,3.8s15.4,1.9,15.4,3.8c0,2.3,7.7,3.8,17.3,3.8
		c12.7,0,17.3,1.5,17.3,5.8c0,3.8,3.8,5.8,11.5,5.8c6.5,0,11.5,1.9,11.5,3.8c0,2.3,7.7,3.8,17.3,3.8s17.3,1.9,17.3,3.8
		c0,2.3,5.4,3.8,11.5,3.8c6.5,0,11.5,1.9,11.5,3.8c0,2.3,6.2,3.8,13.5,3.8s13.5,1.9,13.5,3.8c0,2.3,5.4,3.8,11.5,3.8
		c6.5,0,11.5,1.9,11.5,3.8c0,2.3,6.2,3.8,13.5,3.8c9.2,0,13.5,1.9,13.5,5.8s3.8,5.8,11.5,5.8c6.5,0,11.5,1.9,11.5,3.8
		c0,2.3,4.2,3.8,9.2,3.8c5.4,0,10.8,1.9,11.9,3.8c1.2,2.3,6.5,3.8,11.9,3.8c5,0,9.2,1.9,9.2,3.8c0,2.3,6.2,3.8,13.5,3.8
		s13.5,1.9,13.5,3.8c0,2.3,3.5,3.8,7.7,3.8s7.7,1.9,7.7,3.8c0,2.3,3.5,3.8,7.7,3.8s7.7,2.7,7.7,5.8c0,3.8,4.2,5.8,13.5,5.8
		c7.3,0,13.5,1.9,13.5,3.8c0,2.3,3.5,3.8,7.7,3.8s7.7,1.9,7.7,3.8c0,2.3,3.5,3.8,7.7,3.8s7.7,1.9,7.7,3.8c0,2.3,4.2,3.8,9.6,3.8
		s9.6,1.9,9.6,3.8c0,2.3,3.5,3.8,7.7,3.8s7.7,1.9,7.7,3.8c0,2.3,3.5,3.8,7.7,3.8s7.7,2.7,7.7,5.8c0,3.5,3.5,5.8,9.6,5.8
		c5.4,0,9.6,1.9,9.6,3.8c0,2.3,3.5,3.8,7.7,3.8s7.7,1.9,7.7,3.8c0,2.3,3.5,3.8,7.7,3.8s7.7,1.9,7.7,3.8c0,2.3,3.8,3.8,8.9,3.8
		c4.6,0,11.2,3.5,14.2,7.7c3.1,4.2,8.5,7.7,12.3,7.7s6.9,2.7,6.9,5.8c0,3.5,3.5,5.8,9.6,5.8c5.4,0,9.6,1.9,9.6,3.8
		c0,2.3,3.1,3.8,6.9,3.8s9.2,3.5,12.3,7.7c3.1,4.2,8.5,7.7,12.3,7.7s6.9,1.9,6.9,3.8c0,2.3,2.7,3.8,5.8,3.8c3.1,0,5.8,1.9,5.8,3.8
		c0,2.3,3.5,3.8,7.7,3.8c4.2,0,7.7,1.9,7.7,3.8c0,2.3,3.5,3.8,7.7,3.8c4.2,0,7.7,1.9,7.7,4.2c0,6.5,10.4,15,18.1,15
		c3.8,0,9.6,3.5,12.7,7.7c3.1,4.2,8.1,7.7,11.5,7.7c3.5,0,8.5,3.5,11.5,7.7c3.1,4.2,9.6,7.7,14.2,7.7c5,0,8.9,1.9,8.9,3.8
		c0,5.8,18.1,23.1,23.9,23.1c3.1,0,7.7,3.5,10.8,7.7c3.1,4.2,7.7,7.7,10.4,7.7c2.7,0,5,1.9,5,3.8c0,2.3,3.5,3.8,7.7,3.8
		c4.2,0,7.7,1.9,7.7,3.8c0,6.5,26.2,30.8,32.7,30.8c5.8,0,25,16.2,25,21.2c0,3.8,18.9,21.2,23.1,21.2c1.9,0,3.8,1.9,3.8,3.8
		c0,2.3,2.7,3.8,5.8,3.8c5.8,0,25,16.6,25,21.2c0,3.1,10.4,13.5,13.5,13.5c2.7,0,36.6,33.9,36.6,36.6c0,3.1,10.4,13.5,13.5,13.5
		c3.8,0,44.3,42,44.3,46.2c0,1.9,1.9,3.8,3.8,3.8c5.4,0,46.2,40.8,46.2,46.2c0,1.9,1.9,3.8,3.8,3.8c2.3,0,3.8,3.5,3.8,7.7
		s1.9,7.7,3.8,7.7c5.4,0,30.8,25.4,30.8,30.8c0,1.9,1.9,3.8,3.8,3.8c2.3,0,3.8,2.7,3.8,6.2c0,5.8,8.9,16.9,13.5,16.9
		c5,0,21.2,19.2,21.2,25.4c0,3.5,5.4,11.2,11.5,16.9c6.5,5.8,11.5,13.5,11.5,16.9s2.7,6.2,5.8,6.2c3.1,0,5.8,2.3,5.8,5
		c0,2.7,3.5,7.3,7.7,10.4c4.2,3.1,7.7,8.1,7.7,11.5s3.5,8.5,7.7,11.5c4.2,3.1,7.7,8.9,7.7,12.7c0,7.7,8.5,18.1,15,18.1
		c2.3,0,4.2,3.1,4.2,6.9s3.5,9.2,7.7,12.3c4.2,3.1,7.7,8.5,7.7,12.3s1.9,6.9,3.8,6.9c2.3,0,3.8,2.7,3.8,5.8c0,3.1,1.9,5.8,3.8,5.8
		c2.3,0,3.8,2.7,3.8,6.2c0,6.9,8.9,16.9,15,16.9c2.3,0,4.2,3.5,4.2,7.7s1.9,7.7,3.8,7.7c2.3,0,3.8,3.8,3.8,8.9
		c0,4.6,3.5,11.2,7.7,14.2c4.2,3.1,7.7,8.5,7.7,12.3s1.9,6.9,3.8,6.9c2.3,0,3.8,4.2,3.8,9.6s1.9,9.6,3.8,9.6c2.3,0,3.8,3.5,3.8,7.7
		s2.7,7.7,5.8,7.7s5.8,3.5,5.8,7.7s1.9,7.7,3.8,7.7c2.3,0,3.8,4.2,3.8,9.6s1.9,9.6,3.8,9.6c2.3,0,3.8,3.1,3.8,6.9s3.5,9.2,7.7,12.3
		c5,3.5,7.7,10,7.7,18.1c0,6.9,1.9,12.7,3.8,12.7c2.3,0,3.8,3.5,3.8,7.7s1.9,7.7,3.8,7.7c2.3,0,3.8,3.5,3.8,7.7s2.7,7.7,5.8,7.7
		c3.5,0,5.8,3.5,5.8,9.6c0,5.4,1.9,9.6,3.8,9.6c2.3,0,3.8,3.5,3.8,7.7s1.9,7.7,3.8,7.7c2.3,0,3.8,3.5,3.8,7.7s1.9,7.7,3.8,7.7
		c2.3,0,3.8,6.2,3.8,13.5s1.9,13.5,3.8,13.5c2.3,0,3.8,3.5,3.8,7.7s1.9,7.7,3.8,7.7c2.3,0,3.8,5.4,3.8,11.5c0,7.7,1.9,11.5,5.8,11.5
		c3.5,0,5.8,3.5,5.8,9.6c0,5.4,1.9,9.6,3.8,9.6c2.3,0,3.8,5.4,3.8,11.5c0,6.5,1.9,11.5,3.8,11.5c2.3,0,3.8,6.2,3.8,13.5
		s1.9,13.5,3.8,13.5c2.3,0,3.8,5.4,3.8,11.5c0,6.5,1.9,11.5,3.8,11.5c2.3,0,3.8,6.2,3.8,13.5s1.9,13.5,3.8,13.5
		c2.3,0,3.8,5.4,3.8,11.5c0,7.7,1.9,11.5,5.8,11.5s5.8,4.2,5.8,13.5c0,7.3,1.9,13.5,3.8,13.5c2.3,0,3.8,6.9,3.8,15.4
		s1.9,15.4,3.8,15.4c2.3,0,3.8,7.7,3.8,17.3s1.9,17.3,3.8,17.3c2.3,0,3.8,7.7,3.8,17.3s1.9,17.3,3.8,17.3c2.3,0,3.8,6.9,3.8,15.4
		s1.9,15.4,3.8,15.4c2.3,0,3.8,9.6,3.8,21.2c0,16.2,1.2,21.2,5.8,21.2s5.8,5,5.8,21.2c0,11.5,1.9,21.2,3.8,21.2
		c2.3,0,3.8,12.3,3.8,28.9s1.5,28.9,3.8,28.9s3.8,12.3,3.8,28.9s1.5,28.9,3.8,28.9s3.8,18.1,3.8,46.2s1.5,46.2,3.8,46.2
		s3.8,47,3.8,132.8s-1.5,132.8-3.8,132.8c-1.9,0-3.8,9.6-3.8,21.2s-1.5,21.2-3.8,21.2c-1.9,0-3.8,7.7-3.8,17.3s-1.5,17.3-3.8,17.3
		c-1.9,0-3.8,5.4-3.8,11.5c0,6.5-1.5,11.5-3.8,11.5c-1.9,0-3.8,3.5-3.8,7.7s-2.7,7.7-5.8,7.7c-3.8,0-5.8,4.2-5.8,13.5
		c0,7.3-1.5,13.5-3.8,13.5c-1.9,0-3.8,3.5-3.8,7.7s-1.5,7.7-3.8,7.7c-1.9,0-3.8,4.2-3.8,9.6s-1.5,9.6-3.8,9.6
		c-1.9,0-3.8,3.5-3.8,7.7s-1.5,7.7-3.8,7.7c-1.9,0-3.8,3.5-3.8,7.7s-1.5,7.7-3.8,7.7c-1.9,0-3.8,4.2-3.8,9.6s-1.9,9.6-4.2,9.6
		c-5.8,0-15,10-15,16.2c0,3.1-3.5,7.7-7.7,10.8c-4.2,3.1-7.7,8.9-7.7,12.7c0,7.3-16.2,25.8-23.1,25.8c-1.9,0-3.8,3.1-3.8,6.9
		s-3.5,9.2-7.7,12.3c-4.2,3.1-7.7,6.9-7.7,8.9c0,3.5-25.4,29.6-28.9,29.6c-3.1,0-21.2,18.1-21.2,21.2c0,5-35,36.6-40.4,36.6
		c-6.9,0-25,16.6-25,23.1c0,1.9-3.5,3.8-7.7,3.8c-4.2,0-7.7,1.9-7.7,3.8c0,2.3-2.7,3.8-5.8,3.8s-5.8,1.9-5.8,3.8
		c0,2.3-3.1,3.8-6.9,3.8s-9.2,3.5-12.3,7.7s-8.5,7.7-12.3,7.7s-6.9,1.9-6.9,3.8c0,2.3-4.2,3.8-9.6,3.8c-6.2,0-9.6,2.3-9.6,5.8
		c0,3.1-3.5,5.8-7.7,5.8c-4.2,0-7.7,1.9-7.7,3.8c0,2.3-3.5,3.8-7.7,3.8c-4.2,0-7.7,1.9-7.7,3.8c0,2.3-4.2,3.8-9.6,3.8
		c-5.4,0-9.6,1.9-9.6,3.8c0,2.3-5,3.8-11.5,3.8c-6.2,0-11.5,1.9-11.5,3.8c0,2.3-6.2,3.8-13.5,3.8c-7.3,0-13.5,1.9-13.5,3.8
		c0,2.3-5,3.8-11.5,3.8c-7.7,0-11.5,1.9-11.5,5.8c0,4.2-4.6,5.8-17.3,5.8c-9.6,0-17.3,1.9-17.3,3.8c0,2.3-6.9,3.8-15.4,3.8
		c-8.5,0-15.4,1.9-15.4,3.8c0,2.3-14.2,3.8-34.6,3.8c-20.4,0-34.6,1.5-34.6,3.8s-20.4,3.8-53.9,3.8
		C3760,10507.5,3739.6,10506,3739.6,10503.7z M3731.9,10076.4v-200.2h-196.3h-196.3v25c0,14.2,1.5,25,3.8,25s3.8,6.9,3.8,15.4
		c0,11.2,1.5,15.4,5.8,15.4c3.8,0,5.8,4.2,5.8,13.5c0,7.3,1.9,13.5,3.8,13.5c2.3,0,3.8,4.6,3.8,10s1.5,8.9,3.8,7.3s3.8,3.1,3.8,11.2
		c0,7.7,1.9,13.9,3.8,13.9c2.3,0,3.8,3.1,3.8,6.9s3.5,9.2,7.7,12.3s7.7,8.5,7.7,12.3s2.7,6.9,5.8,6.9c3.5,0,5.8,3.5,5.8,8.1
		c0,4.6,5.4,13.1,11.5,18.9c6.5,5.8,11.5,13.5,11.5,16.9s1.9,6.2,3.8,6.2c2.3,0,3.8,1.9,3.8,4.2c0,4.2,9.6,15,13.5,15
		c2.7,0,36.6,33.9,36.6,36.6c0,5,11.5,13.5,18.1,13.5c3.8,0,9.6,3.5,12.7,7.7c3.1,4.2,8.1,7.7,11.5,7.7c3.5,0,8.5,3.5,11.5,7.7
		c3.1,4.2,9.6,7.7,14.2,7.7c5.4,0,8.9,2.3,8.9,5.8c0,3.1,3.5,5.8,7.7,5.8c4.2,0,7.7,1.9,7.7,3.8c0,2.3,3.5,3.8,7.7,3.8
		c4.2,0,7.7,1.9,7.7,3.8c0,2.3,4.2,3.8,9.6,3.8c5.4,0,9.6,1.9,9.6,3.8c0,2.3,5.4,3.8,11.5,3.8c6.5,0,11.5,1.9,11.5,3.8
		c0,2.3,6.2,3.8,13.5,3.8c7.3,0,13.5,1.9,13.5,3.8c0,2.3,6.9,3.8,15.4,3.8c11.2,0,15.4,1.5,15.4,5.8s4.6,5.8,17.3,5.8h17.3V10076.4z
		 M3882,10270.8c0-4.2,4.6-5.8,17.3-5.8c9.6,0,17.3-1.5,17.3-3.8c0-1.9,5.4-3.8,11.5-3.8c6.5,0,11.5-1.5,11.5-3.8
		c0-1.9,5.4-3.8,11.5-3.8c6.5,0,11.5-1.5,11.5-3.8c0-1.9,4.2-3.8,9.6-3.8c5.4,0,9.6-1.5,9.6-3.8c0-1.9,3.5-3.8,7.7-3.8
		c4.2,0,7.7-1.5,7.7-3.8c0-1.9,3.5-3.8,7.7-3.8c4.2,0,7.7-2.7,7.7-5.8c0-3.5,3.5-5.8,8.9-5.8c4.6,0,11.2-3.5,14.2-7.7
		c3.1-4.2,8.1-7.7,11.5-7.7c3.5,0,8.5-3.5,11.5-7.7c3.1-4.2,7.7-7.7,10.4-7.7s5-1.5,5-3.8c0-1.9,3.5-3.8,7.7-3.8
		c4.2,0,7.7-1.9,7.7-3.8c0-4.2,25-30.8,28.9-30.8c5,0,21.2-19.2,21.2-25.4c0-3.5,5.4-11.2,11.5-16.9c6.5-5.8,11.5-13.5,11.5-16.9
		s2.7-6.2,5.8-6.2s5.8-2.7,5.8-5.8s1.9-5.8,3.8-5.8c2.3,0,3.8-3.5,3.8-7.7s1.9-7.7,3.8-7.7c2.3,0,3.8-3.5,3.8-7.7s1.9-7.7,3.8-7.7
		c2.3,0,3.8-3.5,3.8-7.7s1.9-7.7,3.8-7.7c2.3,0,3.8-4.2,3.8-9.6s1.9-9.6,3.8-9.6c2.3,0,3.8-3.5,3.8-7.7s2.7-7.7,5.8-7.7
		c3.8,0,5.8-4.2,5.8-13.5c0-7.3,1.9-13.5,3.8-13.5c2.3,0,3.8-6.9,3.8-15.4s1.9-15.4,3.8-15.4c2.3,0,3.8-10.8,3.8-25v-25h-204h-204
		v129c0,83.5-1.5,129-3.8,129c-2.3,0-3.8,26.2-3.8,71.2v71.2h28.9C3876.2,10276.5,3882,10275.4,3882,10270.8z M3726.5,9778.4
		c4.2-4.6,5.4-23.5,5.4-100.1v-94.7h-23.5c-14.2,0-22.3-1.5-20.8-3.8c1.5-2.3-1.9-3.8-7.3-3.8c-5.4,0-10,1.9-10,3.8
		c0,2.3-11.2,3.8-25.4,3.8c-15.8,0-24.3-1.5-22.7-3.8c1.5-2.7-34.6-3.8-105.5-3.8c-69.7,0-108.2,1.5-108.2,3.8s-1.9,3.8-4.2,3.8
		c-6.5,0-15,10.4-15,18.9c0,4.6-1.5,8.1-3.8,8.1c-1.9,0-3.8,3.5-3.8,7.7s-1.5,7.7-3.8,7.7c-1.9,0-3.8,3.5-3.8,7.7s-1.5,7.7-3.8,7.7
		c-1.9,0-3.8,6.2-3.8,13.5s-1.5,13.5-3.8,13.5c-1.9,0-3.8,4.2-3.8,9.6s-2.7,10.8-5.8,11.9c-3.5,1.5-5.8,7.3-5.8,15.4
		c0,7.3-1.5,13.1-3.8,13.1s-3.8,10.8-3.8,24.6c0,16.2-1.5,25.4-4.6,26.6c-15,5.4,15.4,6.5,166.7,7.3c92,0.4,153.2,1.9,136.3,3.1
		c-26.2,1.9-22.7,2.7,26.2,3.1C3708.8,9783.8,3721.8,9782.6,3726.5,9778.4z M4240,9754.9c0-16.6-1.5-28.9-3.8-28.9
		c-1.9,0-3.8-7.7-3.8-17.3s-1.5-17.3-3.8-17.3c-1.9,0-3.8-5-3.8-11.5c0-7.7-1.9-11.5-5.8-11.5s-5.8-4.2-5.8-13.5
		c0-7.3-1.5-13.5-3.8-13.5c-1.9,0-3.8-3.5-3.8-7.7s-1.5-7.7-3.8-7.7c-1.9,0-3.8-3.5-3.8-7.7s-1.5-7.7-3.8-7.7
		c-1.9,0-3.8-3.5-3.8-8.1c0-18.9,1.2-18.9-184.4-18.9h-173.6v100.1v100.1h204h204V9754.9z M4089.9,9481.6c0-5.8-19.6-21.2-26.9-21.2
		c-4.2,0-7.7-1.9-7.7-4.2c0-5.8-10-15-16.2-15c-3.1,0-7.7-3.5-10.8-7.7c-3.1-4.2-9.6-7.7-14.2-7.7c-5,0-8.9-1.5-8.9-3.8
		c0-1.9-3.5-3.8-7.7-3.8c-4.2,0-7.7-1.5-7.7-3.8c0-1.9-3.5-3.8-7.7-3.8c-4.2,0-7.7-2.7-7.7-5.8c0-3.5-3.5-5.8-9.6-5.8
		c-5.4,0-9.6-1.5-9.6-3.8c0-1.9-5-3.8-11.5-3.8c-6.2,0-11.5-1.5-11.5-3.8c0-1.9-7.7-3.8-17.3-3.8s-17.3-1.5-17.3-3.8
		c0-1.9-9.6-3.8-21.2-3.8c-11.5,0-21.2-1.5-21.2-3.8s-24.3-3.8-65.4-3.8c-41.2,0-65.4,1.5-65.4,3.8s-9.6,3.8-21.2,3.8
		s-21.2,1.9-21.2,3.8c0,2.3-7.7,3.8-17.3,3.8s-17.3,1.9-17.3,3.8c0,2.3-5,3.8-11.5,3.8c-6.2,0-11.5,1.9-11.5,3.8
		c0,2.3-3.5,3.8-7.7,3.8c-4.2,0-7.7,2.7-7.7,5.8c0,3.5-3.5,5.8-9.6,5.8c-5.4,0-9.6,1.9-9.6,3.8c0,2.3-3.5,3.8-7.7,3.8
		c-4.2,0-7.7,1.9-7.7,3.8c0,2.3-3.5,3.8-7.7,3.8c-4.2,0-7.7,1.9-7.7,3.8c0,2.3-3.8,3.8-8.9,3.8c-4.6,0-11.2,3.5-14.2,7.7
		c-3.1,4.2-8.5,7.7-12.3,7.7s-6.9,1.9-6.9,4.2c0,4.2-9.6,15-13.5,15c-3.1,0-13.5,10-13.5,13.1c0,1.2,135.1,2.3,300.3,2.3
		C3954.7,9483.5,4089.9,9482.8,4089.9,9481.6z"/>
	<path class="st0" d="M1449,10270.8c0-4.6-5.4-5.8-25-5.8c-14.2,0-25-1.5-25-3.8c0-1.9-5-3.8-11.5-3.8c-6.2,0-11.5-1.5-11.5-3.8
		c0-1.9-6.2-3.8-13.5-3.8c-7.3,0-13.5-1.5-13.5-3.8c0-1.9-5-3.8-11.5-3.8c-6.2,0-11.5-1.5-11.5-3.8c0-1.9-3.5-3.8-7.7-3.8
		c-4.2,0-7.7-1.5-7.7-3.8c0-1.9-4.2-3.8-9.6-3.8c-6.2,0-9.6-2.3-9.6-5.8c0-3.1-3.1-5.8-6.9-5.8s-9.2-3.5-12.3-7.7s-8.5-7.7-12.3-7.7
		s-6.9-1.5-6.9-3.8c0-1.9-2.7-3.8-5.8-3.8s-5.8-1.5-5.8-3.8c0-1.9-2.7-3.8-6.2-3.8c-5.8,0-16.9-8.9-16.9-13.5
		c0-3.1-18.1-21.2-21.2-21.2c-2.7,0-28.9-26.2-28.9-28.9c0-3.1-18.1-21.2-21.2-21.2c-4.6,0-13.5-11.2-13.5-16.9
		c0-3.5-1.5-6.2-3.8-6.2c-1.9,0-3.8-2.7-3.8-5.8s-1.5-5.8-3.8-5.8c-1.9,0-3.8-3.5-3.8-7.7s-1.5-7.7-3.8-7.7c-1.9,0-3.8-2.7-3.8-6.2
		c0-6.9-8.9-16.9-15-16.9c-2.3,0-4.2-4.2-4.2-9.6s-1.5-9.6-3.8-9.6c-1.9,0-3.8-5-3.8-11.5c0-6.2-1.5-11.5-3.8-11.5
		c-1.9,0-3.8-3.5-3.8-7.7s-1.5-7.7-3.8-7.7c-1.9,0-3.8-7.7-3.8-17.3s-1.5-17.3-3.8-17.3c-1.9,0-3.8-7.7-3.8-17.3s-1.5-17.3-3.8-17.3
		c-1.9,0-3.8-6.9-3.8-15.4v-15.4h458.1h458.1v15.4c0,11.2-1.5,15.4-5.8,15.4s-5.8,4.6-5.8,17.3c0,9.6-1.5,17.3-3.8,17.3
		c-1.9,0-3.8,5.4-3.8,11.5c0,6.5-1.5,11.5-3.8,11.5c-1.9,0-3.8,6.2-3.8,13.5s-1.5,13.5-3.8,13.5c-1.9,0-3.8,3.5-3.8,7.7
		s-1.5,7.7-3.8,7.7c-1.9,0-3.8,5.4-3.8,11.9c0,11.5-7.3,22.7-15,22.7c-2.3,0-4.2,3.5-4.2,7.7s-1.5,7.7-3.8,7.7
		c-1.9,0-3.8,3.5-3.8,7.7s-1.5,7.7-3.8,7.7c-1.9,0-3.8,2.7-3.8,5.8s-1.5,5.8-3.8,5.8c-1.9,0-3.8,2.7-3.8,5.8c0,5.8-16.6,25-21.2,25
		c-3.1,0-13.5,10.4-13.5,13.5c0,2.7-33.9,36.6-36.6,36.6c-3.1,0-13.5,10.4-13.5,13.5c0,4.6-10.8,13.5-16.2,13.5
		c-3.1,0-7.7,3.5-10.8,7.7s-9.2,7.7-13.5,7.7c-4.2,0-10.4,3.5-13.5,7.7c-3.1,4.2-8.5,7.7-12.3,7.7s-6.9,2.7-6.9,5.8
		c0,3.5-3.5,5.8-9.6,5.8c-5.4,0-9.6,1.9-9.6,3.8c0,2.3-3.5,3.8-7.7,3.8c-4.2,0-7.7,1.9-7.7,3.8c0,2.3-5,3.8-11.5,3.8
		c-6.2,0-11.5,1.9-11.5,3.8c0,2.3-6.2,3.8-13.5,3.8c-7.3,0-13.5,1.9-13.5,3.8c0,2.3-5,3.8-11.5,3.8c-6.2,0-11.5,1.9-11.5,3.8
		c0,2.3-10.8,3.8-25,3.8c-19.6,0-25,1.2-25,5.8c0,5-9.2,5.8-59.7,5.8C1458.3,10276.5,1449,10275.8,1449,10270.8z"/>
	<path class="st0" d="M1052.5,9741.4c0-8.5,1.9-15.4,3.8-15.4c2.3,0,3.8-9.6,3.8-21.2s1.9-21.2,3.8-21.2c2.3,0,3.8-5,3.8-11.5
		c0-6.2,1.9-11.5,3.8-11.5c2.3,0,3.8-4.2,3.8-9.2c0-5.4,1.9-10.8,3.8-11.9c2.3-1.2,3.8-6.5,3.8-11.9c0-5,1.9-9.2,3.8-9.2
		c2.3,0,3.8-4.2,3.8-9.6c0-6.2,2.3-9.6,5.8-9.6c3.1,0,5.8-3.1,5.8-6.9s3.5-9.2,7.7-12.3s7.7-8.5,7.7-12.3s1.9-6.9,3.8-6.9
		c2.3,0,3.8-2.7,3.8-5.8s1.9-5.8,3.8-5.8c2.3,0,3.8-2.7,3.8-6.2c0-5.8,8.9-16.9,13.5-16.9s13.5-11.2,13.5-17.3
		c0-7.7,32.7-40.4,40.4-40.4c6.2,0,17.3-8.9,17.3-13.5c0-5.4,19.2-21.2,25.8-21.2c3.8,0,9.6-3.5,12.7-7.7s8.5-7.7,12.3-7.7
		s6.9-1.5,6.9-3.8c0-1.9,3.5-3.8,7.7-3.8c4.2,0,7.7-2.7,7.7-5.8c0-3.5,3.5-5.8,9.6-5.8c5.4,0,9.6-1.5,9.6-3.8c0-1.9,3.5-3.8,7.7-3.8
		c4.2,0,7.7-1.5,7.7-3.8c0-1.9,3.5-3.8,7.7-3.8c4.2,0,7.7-1.5,7.7-3.8c0-1.9,6.2-3.8,13.5-3.8c7.3,0,13.5-1.5,13.5-3.8
		c0-1.9,6.2-3.8,13.9-3.8c8.1,0,12.7-1.5,11.2-3.8c-1.5-2.3,6.9-3.8,22.7-3.8c14.2,0,25.4-1.5,25.4-3.8s25-3.8,67.4-3.8
		s67.4,1.5,67.4,3.8s9.6,3.8,21.2,3.8s21.2,1.9,21.2,3.8c0,2.3,6.9,3.8,15.4,3.8c8.5,0,15.4,1.9,15.4,3.8c0,2.3,6.2,3.8,13.5,3.8
		c7.3,0,13.5,1.9,13.5,3.8c0,2.3,3.5,3.8,7.7,3.8c4.2,0,7.7,1.9,7.7,3.8c0,2.3,3.5,3.8,7.7,3.8c4.2,0,7.7,1.9,7.7,3.8
		c0,2.3,4.2,3.8,9.6,3.8c6.2,0,9.6,2.3,9.6,5.8c0,3.1,3.5,5.8,7.7,5.8c4.2,0,7.7,1.9,7.7,3.8c0,2.3,3.5,3.8,7.7,3.8
		c4.2,0,7.7,1.9,7.7,3.8c0,2.3,2.7,3.8,5.8,3.8c3.1,0,5.8,1.9,5.8,3.8c0,2.3,2.7,3.8,5.8,3.8c5.8,0,25,16.6,25,21.2
		s11.2,13.5,17.3,13.5c7.7,0,32.7,25,32.7,32.7c0,6.2,8.9,17.3,13.5,17.3s21.2,19.2,21.2,25c0,3.1,1.9,5.8,3.8,5.8
		c2.3,0,3.8,2.7,3.8,5.8s1.9,5.8,3.8,5.8c2.3,0,3.8,2.7,3.8,6.2c0,6.9,8.9,16.9,15,16.9c2.3,0,4.2,3.5,4.2,7.7s1.9,7.7,3.8,7.7
		c2.3,0,3.8,4.2,3.8,9.6s1.9,9.6,3.8,9.6c2.3,0,3.8,5.4,3.8,11.5c0,6.5,1.9,11.5,3.8,11.5c2.3,0,3.8,4.2,3.8,9.6s1.9,9.6,3.8,9.6
		c2.3,0,3.8,6.9,3.8,15.4s1.9,15.4,3.8,15.4c2.3,0,3.8,7.7,3.8,17.3c0,12.7,1.5,17.3,5.8,17.3s5.8,4.2,5.8,15.4v15.4h-458.1h-458.1
		V9741.4z"/>
</g>
</svg>
