<?xml version="1.0" encoding="UTF-8" standalone="no"?>
<!DOCTYPE svg PUBLIC "-//W3C//DTD SVG 1.1//EN" "http://www.w3.org/Graphics/SVG/1.1/DTD/svg11.dtd">
<!-- 由 Microsoft Visio, SVG Export 生成 Stream.svg 页-1 -->
<svg xmlns="http://www.w3.org/2000/svg" xmlns:xlink="http://www.w3.org/1999/xlink" xmlns:ev="http://www.w3.org/2001/xml-events"
		xmlns:v="http://schemas.microsoft.com/visio/2003/SVGExtensions/" width="5.35652in" height="5.35652in"
		viewBox="0 0 385.669 385.669" xml:space="preserve" color-interpolation-filters="sRGB" class="st4">
	<v:documentProperties v:langID="2052" v:metric="true" v:viewMarkup="false"/>

	<style type="text/css">
	<![CDATA[
		.st1 {fill:#00ffff;stroke:#d700c1;stroke-linecap:round;stroke-linejoin:round;stroke-width:20}
		.st2 {fill:#ffffff;font-family:黑体;font-size:15em;font-weight:bold}
		.st3 {fill:#ffffff;stroke:none;stroke-linecap:butt;stroke-width:0.146484}
		.st4 {fill:none;fill-rule:evenodd;font-size:12px;overflow:visible;stroke-linecap:square;stroke-miterlimit:3}
	]]>
	</style>

	<g v:mID="0" v:index="1" v:groupContext="foregroundPage">
		<title>页-1</title>
		<v:pageProperties v:drawingScale="0.0393701" v:pageScale="0.0393701" v:drawingUnits="24" v:shadowOffsetX="8.50394"
				v:shadowOffsetY="-8.50394"/>
		<g id="shape1-1" v:mID="1" v:groupContext="shape" transform="translate(10,-10)">
			<title>工作表.1</title>
			<desc>河</desc>
			<v:textBlock v:margins="rect(4,4,4,4)" v:tabSpace="42.5197" v:verticalAlign="0"/>
			<v:textRect cx="182.835" cy="202.835" width="365.67" height="365.669"/>
			<ellipse cx="182.835" cy="202.835" rx="182.835" ry="182.835" class="st1"/>
			<text x="92.48" y="186" class="st2" v:langID="2052"><v:paragraph v:horizAlign="1"/><v:tabList/>河</text>		</g>
		<g id="group4-4" transform="translate(117.407,-35.5118)" v:mID="4" v:groupContext="group">
			<title>工作表.4</title>
			<g id="shape5-5" v:mID="5" v:groupContext="shape">
				<title>工作表.5</title>
				<path d="M142.73 371.8 A19.3025 19.3025 -180 0 0 116.43 371.8 A7.26846 7.26846 0 0 1 106.66 371.8 A19.3025 19.3025
							 -180 0 0 80.36 371.8 A7.26846 7.26846 0 0 1 70.59 371.8 A19.3025 19.3025 -180 0 0 44.3 371.8 A7.26846
							 7.26846 0 0 1 34.53 371.8 A19.3025 19.3025 -180 0 0 8.23 371.8 L2.71 376.95 A6.00228 6.00228 -180 1
							 0 10.97 385.65 L16.39 380.51 A7.26846 7.26846 0 0 1 26.16 380.51 A19.3368 19.3368 -180 0 0 52.46 380.51
							 A7.26846 7.26846 0 0 1 62.23 380.51 A19.3368 19.3368 -180 0 0 88.52 380.51 A7.26846 7.26846 0 0 1 98.3
							 380.51 A19.3368 19.3368 -180 0 0 124.59 380.51 A7.26846 7.26846 0 0 1 134.36 380.51 L139.78 385.65 A6.00228
							 6.00228 -180 0 0 148.04 376.95 L142.73 371.8 ZM80.33 347.8 A7.26846 7.26846 0 0 1 70.56 347.8 A19.3025
							 19.3025 -180 0 0 44.26 347.8 A7.26846 7.26846 0 0 1 34.49 347.8 A19.3025 19.3025 -180 0 0 8.19 347.8
							 L2.71 352.95 A6.00228 6.00228 -180 1 0 10.97 361.65 L16.39 356.51 A7.26846 7.26846 0 0 1 26.16 356.51
							 A19.3368 19.3368 -180 0 0 52.46 356.51 A7.26846 7.26846 0 0 1 62.23 356.51 A19.3368 19.3368 -180 0 0
							 88.52 356.51 A7.26846 7.26846 0 0 1 98.3 356.51 A19.3368 19.3368 -180 0 0 124.59 356.51 A7.26846 7.26846
							 0 0 1 134.36 356.51 L139.78 361.65 A6.00228 6.00228 -180 0 0 148.04 352.95 L142.63 347.8 A19.3025 19.3025
							 -180 0 0 116.33 347.8 A7.26846 7.26846 0 0 1 106.56 347.8 A19.3025 19.3025 -180 0 0 80.33 347.8 ZM146.88
							 265.38 A35.2452 35.2452 -180 0 0 133.51 261.3 A27.4281 27.4281 -180 0 0 122.02 265.55 A36.308 36.308
							 0 0 1 116.57 268.16 A48.7535 48.7535 0 0 1 108.99 265.38 L99.43 260.96 L99.43 332.96 A29.0395 29.0395
							 0 0 1 111.53 338.44 L113.14 337.28 L113.14 305.36 A14.6055 14.6055 -180 0 0 117.29 305.87 A27.4281 27.4281
							 -180 0 0 128.64 301.62 A39.8051 39.8051 0 0 1 133.71 299.02 A46.7993 46.7993 0 0 1 141.01 301.79 L150.85
							 306.32 L150.85 267.2 L146.88 265.38 ZM137.14 285.75 A14.2626 14.2626 -180 0 0 133.47 285.3 A27.4281
							 27.4281 -180 0 0 122.02 289.59 A36.308 36.308 0 0 1 116.81 292.12 A28.5253 28.5253 0 0 1 113.14 290.99
							 L113.14 281.39 A15.874 15.874 -180 0 0 117.12 281.91 A27.4281 27.4281 -180 0 0 128.57 277.66 A39.1537
							 39.1537 0 0 1 133.71 275.02 A25.9539 25.9539 0 0 1 137.14 276.11 L137.14 285.75 ZM48 237.3 A30.8566
							 30.8566 -180 0 0 26.64 290.38 A47.9992 47.9992 -180 0 0 0 333.3 A6.85703 6.85703 -180 0 0 2.81 338.82
							 A28.9367 28.9367 0 0 1 13.71 333.3 A34.2852 34.2852 0 0 1 48 299.02 A30.8566 30.8566 -180 0 0 48 237.3
							 ZM48 285.3 A17.1426 17.1426 0 1 1 65.14 268.16 A17.1426 17.1426 0 0 1 48 285.3 ZM74.84 301.38 A6.85703
							 6.85703 -180 0 0 74.09 311.05 A34.2852 34.2852 0 0 1 82.28 333.3 A6.85703 6.85703 -180 0 0 82.28 334.5
							 A29.691 29.691 0 0 1 93.36 332.37 L95.86 332.37 A47.9992 47.9992 -180 0 0 84.41 302.07 A6.85703 6.85703
							 -180 0 0 74.84 301.38 Z" class="st3"/>
			</g>
		</g>
	</g>
</svg>
